<?xml version="1.0" encoding="UTF-8" standalone="yes"?>
<svg width="150px" height="150px" viewBox="0 0 150 150" version="1.2" baseProfile="tiny-ps" xmlns="http://www.w3.org/2000/svg">
  <title>bimi-svg-tiny-12-ps</title>
  <g id="surface1">
    <path d="M 1.898438 129.03125 C 1.898438 86.675781 1.898438 44.316406 1.898438 1.785156 C 51.898438 1.785156 101.898438 1.785156 151.898438 1.785156 C 151.898438 7.625 151.898438 13.523438 151.195312 20.175781 C 148.421875 18.234375 146.355469 15.535156 144.238281 12.179688 C 141.171875 10.375 138.160156 8.238281 135.132812 8.21875 C 96.234375 7.992188 57.332031 8.03125 18.433594 8.132812 C 15.453125 8.140625 12.472656 9.140625 8.953125 10.171875 C 8.152344 25.382812 7.886719 40.101562 7.613281 55.578125 C 8.246094 75.738281 8.894531 95.144531 9.535156 115.273438 C 9.5 120.347656 9.472656 124.691406 8.6875 129.039062 C 5.921875 129.035156 3.910156 129.035156 1.898438 129.03125 Z M 1.898438 129.03125 " stroke="none" fill-rule="nonzero" fill="rgb(5.098039%,8.235294%,13.333333%)" fill-opacity="1"/>
    <path d="M 151.898438 33.871094 C 151.898438 67.777344 151.898438 101.679688 151.253906 136.445312 C 147.253906 138.851562 143.898438 140.398438 140.800781 141.367188 C 142.144531 136.457031 143.925781 132.140625 144.035156 127.789062 C 144.089844 125.527344 141.191406 123.210938 139.527344 120.398438 C 139.492188 119.1875 139.558594 118.492188 139.988281 117.207031 C 140.859375 111.535156 141.363281 106.449219 142.515625 101.363281 C 147.355469 96.429688 147.613281 71.046875 143.492188 66.433594 C 143.34375 66.269531 142.90625 66.289062 142.550781 65.667969 C 142.5 64.371094 142.507812 63.628906 143.234375 62.707031 C 144.707031 60.117188 146 57.726562 146.101562 55.300781 C 146.394531 48.160156 146.210938 41.003906 146.925781 33.859375 C 149.058594 33.867188 150.476562 33.867188 151.898438 33.871094 Z M 151.898438 33.871094 " stroke="none" fill-rule="nonzero" fill="rgb(11.764706%,15.294118%,19.607843%)" fill-opacity="1"/>
    <path d="M 1.898438 129.796875 C 3.910156 129.035156 5.921875 129.035156 8.707031 129.777344 C 9.484375 132.617188 9.820312 134.757812 9.4375 136.800781 C 7.972656 144.625 11.421875 148.195312 20.917969 147.457031 C 20.894531 149.238281 20.890625 150.425781 20.886719 151.613281 C 14.675781 151.613281 8.46875 151.613281 1.898438 151.613281 C 1.898438 144.597656 1.898438 137.578125 1.898438 129.796875 Z M 1.898438 129.796875 " stroke="none" fill-rule="nonzero" fill="rgb(5.490196%,9.411765%,14.901961%)" fill-opacity="1"/>
    <path d="M 151.898438 33.15625 C 150.476562 33.867188 149.058594 33.867188 146.921875 33.257812 C 146.207031 31.445312 146.203125 30.238281 146.082031 28.492188 C 142.878906 25.085938 139.796875 22.214844 136.269531 18.945312 C 133.695312 18.269531 131.5625 18 129.285156 17.105469 C 129.050781 14.78125 128.964844 13.085938 129.679688 11.367188 C 135.082031 11.839844 139.683594 12.335938 144.285156 12.835938 C 146.355469 15.535156 148.421875 18.234375 151.195312 20.949219 C 151.898438 24.792969 151.898438 28.613281 151.898438 33.15625 Z M 151.898438 33.15625 " stroke="none" fill-rule="nonzero" fill="rgb(9.411765%,12.941176%,17.647059%)" fill-opacity="1"/>
    <path d="M 96.835938 151.613281 C 84.136719 151.613281 71.4375 151.613281 57.851562 151.015625 C 56.953125 149.226562 56.941406 148.035156 57.824219 146.8125 C 71.449219 146.816406 84.183594 146.855469 96.894531 147.480469 C 96.859375 149.253906 96.847656 150.433594 96.835938 151.613281 Z M 96.835938 151.613281 " stroke="none" fill-rule="nonzero" fill="rgb(5.882353%,9.803922%,15.686275%)" fill-opacity="1"/>
    <path d="M 97.726562 151.613281 C 96.847656 150.433594 96.859375 149.253906 97.699219 147.449219 C 111.875 146.839844 125.226562 146.855469 138.585938 147.460938 C 138.597656 149.238281 138.601562 150.425781 138.609375 151.613281 C 125.277344 151.613281 111.945312 151.613281 97.726562 151.613281 Z M 97.726562 151.613281 " stroke="none" fill-rule="nonzero" fill="rgb(13.333333%,16.862745%,21.568627%)" fill-opacity="1"/>
    <path d="M 139.554688 151.613281 C 138.601562 150.425781 138.597656 149.238281 139.035156 147.148438 C 139.816406 145.328125 140.15625 144.410156 140.496094 143.105469 C 140.496094 142.71875 140.542969 141.945312 140.542969 141.945312 C 143.898438 140.398438 147.253906 138.851562 151.253906 137.203125 C 151.898438 141.78125 151.898438 146.464844 151.898438 151.613281 C 148.105469 151.613281 144.300781 151.613281 139.554688 151.613281 Z M 139.554688 151.613281 " stroke="none" fill-rule="nonzero" fill="rgb(7.843137%,12.156863%,16.470588%)" fill-opacity="1"/>
    <path d="M 37.976562 151.613281 C 35.335938 151.613281 32.699219 151.613281 29.289062 151.027344 C 28.53125 149.269531 28.550781 148.09375 29.421875 146.878906 C 35.988281 146.871094 41.703125 146.902344 47.445312 147.308594 C 47.472656 147.675781 47.519531 148.417969 47.496094 148.402344 C 47.476562 148.386719 47.484375 148.425781 46.738281 148.414062 C 43.320312 149.472656 40.648438 150.542969 37.976562 151.613281 Z M 37.976562 151.613281 " stroke="none" fill-rule="nonzero" fill="rgb(21.176471%,23.921569%,28.627451%)" fill-opacity="1"/>
    <path d="M 56.929688 146.839844 C 56.941406 148.035156 56.953125 149.226562 56.960938 151.015625 C 53.085938 151.613281 49.207031 151.613281 44.8125 151.238281 C 45.359375 150.050781 46.421875 149.238281 47.484375 148.425781 C 47.484375 148.425781 47.476562 148.386719 48.039062 148.355469 C 49.472656 147.828125 50.34375 147.335938 51.925781 146.808594 C 54.070312 146.800781 55.5 146.820312 56.929688 146.839844 Z M 56.929688 146.839844 " stroke="none" fill-rule="nonzero" fill="rgb(10.588235%,14.509804%,20%)" fill-opacity="1"/>
    <path d="M 28.570312 146.921875 C 28.550781 148.09375 28.53125 149.269531 28.496094 151.027344 C 26.457031 151.613281 24.429688 151.613281 21.644531 151.613281 C 20.890625 150.425781 20.894531 149.238281 21.679688 147.425781 C 24.5 146.84375 26.535156 146.882812 28.570312 146.921875 Z M 28.570312 146.921875 " stroke="none" fill-rule="nonzero" fill="rgb(12.156863%,14.901961%,20.784314%)" fill-opacity="1"/>
    <path d="M 46.738281 148.414062 C 46.421875 149.238281 45.359375 150.050781 43.984375 151.238281 C 42.246094 151.613281 40.824219 151.613281 38.6875 151.613281 C 40.648438 150.542969 43.320312 149.472656 46.738281 148.414062 Z M 46.738281 148.414062 " stroke="none" fill-rule="nonzero" fill="rgb(16.470588%,18.823529%,23.529412%)" fill-opacity="1"/>
    <path d="M 29.421875 146.878906 C 26.535156 146.882812 24.5 146.84375 21.703125 146.832031 C 11.421875 148.195312 7.972656 144.625 9.4375 136.800781 C 9.820312 134.757812 9.484375 132.617188 9.460938 129.78125 C 9.472656 124.691406 9.5 120.347656 9.964844 115.265625 C 10.402344 114.535156 11.269531 114.535156 11.300781 115.132812 C 12.535156 118.992188 13.738281 122.253906 14.898438 126.238281 C 14.84375 130.234375 14.828125 133.507812 14.164062 137.003906 C 8.859375 143.171875 11.382812 145.417969 19.859375 145.035156 C 22.730469 144.976562 24.816406 144.875 27.644531 144.859375 C 30.351562 144.859375 32.320312 144.773438 35.054688 144.789062 C 38.402344 144.828125 40.980469 144.769531 44.21875 144.851562 C 47.652344 144.039062 50.429688 143.085938 53.320312 142.695312 C 55.847656 143.828125 58.261719 144.394531 61.171875 145.011719 C 61.996094 145.066406 62.328125 145.074219 63.542969 145.105469 C 73.363281 145.089844 82.300781 145.046875 91.960938 145.042969 C 95.335938 144.550781 97.984375 144.019531 101.289062 143.515625 C 105.074219 143.257812 108.203125 142.976562 111.816406 143.078125 C 114.226562 143.222656 116.144531 142.988281 118.621094 143.222656 C 121.6875 143.96875 124.199219 144.25 127.109375 144.679688 C 127.808594 144.324219 128.121094 143.820312 128.558594 142.945312 C 128.6875 142.578125 129.050781 141.878906 129.628906 142.066406 C 133.640625 142.664062 137.070312 143.078125 140.496094 143.492188 C 140.15625 144.410156 139.816406 145.328125 139.027344 146.554688 C 125.226562 146.855469 111.875 146.839844 97.722656 146.859375 C 84.183594 146.855469 71.449219 146.816406 57.824219 146.8125 C 55.5 146.820312 54.070312 146.800781 51.292969 146.78125 C 49.101562 146.835938 48.257812 146.886719 47.414062 146.9375 C 41.703125 146.902344 35.988281 146.871094 29.421875 146.878906 Z M 29.421875 146.878906 " stroke="none" fill-rule="nonzero" fill="rgb(0.392157%,0.392157%,0.392157%)" fill-opacity="1"/>
    <path d="M 11.269531 114.535156 C 11.269531 114.535156 10.402344 114.535156 9.96875 114.542969 C 8.894531 95.144531 8.246094 75.738281 8.28125 55.578125 C 10.75 54.8125 12.539062 54.800781 14.582031 55.410156 C 15.929688 57.355469 17.023438 58.683594 18.058594 60.386719 C 17.984375 61.285156 17.835938 61.777344 17.320312 62.75 C 17.027344 63.617188 16.964844 63.976562 16.855469 64.824219 C 16.835938 65.648438 16.863281 65.976562 16.734375 66.921875 C 16.074219 71.789062 15.570312 76.046875 14.398438 80.554688 C 13.566406 85.070312 13.402344 89.332031 13.21875 94.28125 C 13.199219 97.742188 13.195312 100.511719 13.1875 103.949219 C 12.542969 107.925781 11.90625 111.230469 11.269531 114.535156 Z M 11.269531 114.535156 " stroke="none" fill-rule="nonzero" fill="rgb(3.529412%,4.705882%,6.666667%)" fill-opacity="1"/>
    <path d="M 144.238281 12.179688 C 139.683594 12.335938 135.082031 11.839844 128.972656 11.054688 C 119.21875 10.433594 110.976562 10.097656 101.832031 9.742188 C 87.089844 9.707031 73.242188 9.511719 59.414062 9.835938 C 56.644531 9.898438 53.941406 11.925781 50.515625 12.78125 C 41.449219 11.660156 33.070312 10.800781 24.023438 9.820312 C 21.988281 9.726562 20.621094 9.753906 18.445312 9.75 C 14.917969 9.707031 12.207031 9.691406 9.496094 9.679688 C 9.492188 9.675781 9.492188 9.675781 9.492188 9.675781 C 12.472656 9.140625 15.453125 8.140625 18.433594 8.132812 C 57.332031 8.03125 96.234375 7.992188 135.132812 8.21875 C 138.160156 8.238281 141.171875 10.375 144.238281 12.179688 Z M 144.238281 12.179688 " stroke="none" fill-rule="nonzero" fill="rgb(0.392157%,0.392157%,0.392157%)" fill-opacity="1"/>
    <path d="M 14.328125 54.789062 C 12.539062 54.800781 10.75 54.8125 8.292969 54.820312 C 7.886719 40.101562 8.152344 25.382812 8.953125 10.171875 C 9.492188 9.675781 9.492188 9.675781 9.5 10.425781 C 9.503906 15.617188 9.078125 20.097656 9.652344 24.484375 C 10.007812 27.183594 11.894531 29.738281 13.054688 32.742188 C 13.015625 33.125 12.964844 33.898438 12.542969 34.265625 C 12.382812 36.519531 12.640625 38.402344 12.960938 40.953125 C 13.457031 46.011719 13.890625 50.398438 14.328125 54.789062 Z M 14.328125 54.789062 " stroke="none" fill-rule="nonzero" fill="rgb(1.176471%,1.568627%,2.352941%)" fill-opacity="1"/>
    <path d="M 141.867188 101.359375 C 141.363281 106.449219 140.859375 111.535156 139.242188 117.054688 C 136.847656 115.28125 135.566406 113.074219 133.910156 110.769531 C 133.535156 110.667969 133.128906 110.101562 133.816406 109.496094 C 134.023438 107.394531 133.546875 105.902344 133.171875 103.859375 C 133.292969 101.457031 133.308594 99.605469 133.949219 97.125 C 134.761719 93.933594 134.953125 91.367188 135.164062 88.238281 C 134.625 86.683594 134.066406 85.695312 133.695312 84.042969 C 133.71875 76.25 133.550781 69.121094 133.347656 61.703125 C 133.273438 61.023438 133.292969 60.632812 134.03125 59.757812 C 135.058594 58.351562 135.429688 57.433594 136.304688 56.597656 C 137.457031 56.863281 138.101562 57.042969 138.960938 57.65625 C 140.289062 59.691406 141.402344 61.289062 142.511719 62.886719 C 142.507812 63.628906 142.5 64.371094 142.511719 65.671875 C 142.53125 66.230469 142.523438 66.289062 142.261719 66.398438 C 142 66.507812 141.863281 67.148438 141.863281 67.148438 C 141.863281 67.148438 142.515625 67.582031 142.5 68.316406 C 142.28125 79.820312 142.074219 90.589844 141.867188 101.359375 Z M 141.867188 101.359375 " stroke="none" fill-rule="nonzero" fill="rgb(25.882353%,28.235294%,32.941176%)" fill-opacity="1"/>
    <path d="M 143.234375 62.707031 C 141.402344 61.289062 140.289062 59.691406 139.070312 56.839844 C 139.011719 49.460938 139.0625 43.339844 139.664062 37.117188 C 140.285156 35.4375 140.355469 33.859375 140.445312 31.738281 C 140.496094 30.472656 140.523438 29.753906 141.257812 29.03125 C 143.375 29.03125 144.785156 29.03125 146.199219 29.035156 C 146.203125 30.238281 146.207031 31.445312 146.214844 33.253906 C 146.210938 41.003906 146.394531 48.160156 146.101562 55.300781 C 146 57.726562 144.707031 60.117188 143.234375 62.707031 Z M 143.234375 62.707031 " stroke="none" fill-rule="nonzero" fill="rgb(13.333333%,15.686275%,19.215686%)" fill-opacity="1"/>
    <path d="M 140.496094 143.105469 C 137.070312 143.078125 133.640625 142.664062 129.734375 141.613281 C 129.828125 140.210938 130.398438 139.441406 131.550781 138.609375 C 132.933594 137.507812 133.726562 136.472656 135.042969 135.203125 C 135.417969 133.542969 135.273438 132.117188 135.164062 130.007812 C 135.140625 127.953125 135.082031 126.578125 135.152344 124.675781 C 136.734375 123.070312 138.179688 121.992188 139.625 120.917969 C 141.191406 123.210938 144.089844 125.527344 144.035156 127.789062 C 143.925781 132.140625 142.144531 136.457031 140.800781 141.367188 C 140.542969 141.945312 140.496094 142.71875 140.496094 143.105469 Z M 140.496094 143.105469 " stroke="none" fill-rule="nonzero" fill="rgb(25.882353%,28.235294%,32.941176%)" fill-opacity="1"/>
    <path d="M 142.515625 101.363281 C 142.074219 90.589844 142.28125 79.820312 142.5 67.992188 C 142.515625 66.9375 142.523438 66.289062 142.523438 66.289062 C 142.523438 66.289062 142.53125 66.230469 142.570312 66.226562 C 142.90625 66.289062 143.34375 66.269531 143.492188 66.433594 C 147.613281 71.046875 147.355469 96.429688 142.515625 101.363281 Z M 142.515625 101.363281 " stroke="none" fill-rule="nonzero" fill="rgb(8.627451%,10.196078%,12.941176%)" fill-opacity="1"/>
    <path d="M 139.527344 120.398438 C 138.179688 121.992188 136.734375 123.070312 134.628906 124.417969 C 133.265625 123.8125 132.558594 122.929688 131.671875 121.558594 C 132.417969 117.667969 133.351562 114.269531 134.28125 110.871094 C 135.566406 113.074219 136.847656 115.28125 138.878906 117.640625 C 139.558594 118.492188 139.492188 119.1875 139.527344 120.398438 Z M 139.527344 120.398438 " stroke="none" fill-rule="nonzero" fill="rgb(40%,41.176471%,45.882353%)" fill-opacity="1"/>
    <path d="M 133.910156 110.769531 C 133.351562 114.269531 132.417969 117.667969 131.296875 121.867188 C 130.449219 123.71875 129.789062 124.773438 128.53125 125.855469 C 127.144531 125.949219 126.351562 126.011719 124.773438 126.070312 C 118.695312 126.558594 113.40625 127.050781 107.625 127.109375 C 104.300781 126.429688 101.464844 126.1875 98.109375 125.644531 C 96.027344 123.40625 94.460938 121.460938 92.75 119.019531 C 91.515625 117.164062 90.425781 115.808594 89.339844 113.941406 C 88.148438 111.898438 86.949219 110.363281 85.246094 108.425781 C 82.40625 104.820312 80.066406 101.617188 77.65625 97.90625 C 76.40625 96.117188 75.222656 94.832031 73.828125 93.042969 C 71.90625 90.167969 70.199219 87.800781 68.425781 84.898438 C 66.964844 82.613281 65.570312 80.863281 64.101562 78.613281 C 63.453125 76.871094 62.875 75.628906 62.289062 73.808594 C 59.246094 72.21875 56.058594 70.226562 53.21875 70.535156 C 51.203125 70.757812 49.65625 74.082031 47.796875 76.601562 C 48.539062 79.132812 49.386719 81.085938 50.234375 83.199219 C 50.238281 83.359375 50.527344 83.570312 50.417969 83.976562 C 50.4375 84.632812 50.566406 84.886719 50.507812 85.492188 C 50.320312 85.84375 50.328125 86.617188 49.734375 87.066406 C 49.023438 90.570312 48.902344 93.628906 48.648438 97.351562 C 48.214844 107.285156 47.917969 116.550781 47.121094 125.769531 C 46.296875 125.785156 45.972656 125.851562 44.820312 125.902344 C 38.746094 126.996094 33.492188 128.105469 27.644531 128.949219 C 24.75 127.726562 22.457031 126.769531 20.058594 125.0625 C 19.695312 117.308594 19.433594 110.304688 19.539062 102.699219 C 19.710938 90.101562 19.511719 78.101562 19.574219 65.714844 C 19.664062 65.0625 19.488281 64.800781 19.535156 63.925781 C 19.566406 62.917969 19.371094 62.523438 19.324219 62.128906 C 19.472656 62.128906 19.835938 61.820312 19.960938 61.035156 C 19.890625 50.382812 19.699219 40.511719 19.792969 30.070312 C 20.285156 28.285156 20.488281 27.074219 21.234375 25.421875 C 22.742188 19.96875 23.71875 14.953125 24.691406 9.9375 C 33.070312 10.800781 41.449219 11.660156 50.550781 13.386719 C 52.378906 15.917969 53.484375 17.578125 54.835938 19.707031 C 63.398438 31.179688 71.714844 42.183594 79.886719 53.773438 C 85.417969 61.074219 91.09375 67.792969 96.886719 75.105469 C 98.171875 78.40625 99.335938 81.121094 100.5 83.832031 C 101.820312 83.652344 103.144531 83.472656 104.464844 83.292969 C 103.78125 78.097656 103.101562 72.902344 102.507812 66.957031 C 102.613281 56.398438 102.800781 46.582031 102.558594 36.777344 C 102.464844 33.046875 101.382812 29.332031 100.707031 25.015625 C 101.171875 22.191406 101.683594 19.960938 102.339844 17.078125 C 102.566406 14.203125 102.648438 11.984375 102.730469 9.765625 C 110.976562 10.097656 119.21875 10.433594 128.167969 11.078125 C 128.964844 13.085938 129.050781 14.78125 129.144531 17.632812 C 129.242188 19.496094 129.332031 20.207031 129.292969 21.453125 C 129.246094 22.71875 129.332031 23.441406 129.289062 24.695312 C 129.234375 25.933594 129.3125 26.644531 129.25 27.992188 C 129.222656 30.339844 129.332031 32.054688 129.296875 34.394531 C 129.808594 37.863281 130.460938 40.707031 131.011719 44.242188 C 131.160156 48.984375 131.410156 53.042969 131.617188 57.578125 C 132.175781 58.785156 132.777344 59.515625 133.378906 60.246094 C 133.292969 60.632812 133.273438 61.023438 132.695312 61.785156 C 131.820312 69.957031 131.5625 77.757812 131.148438 86.066406 C 131.09375 87.257812 131.199219 87.949219 131.0625 89.03125 C 130.824219 89.722656 130.828125 90.019531 130.726562 90.707031 C 130.621094 91.097656 130.804688 91.886719 130.496094 92.300781 C 131.234375 94.398438 132.28125 96.074219 133.324219 97.753906 C 133.308594 99.605469 133.292969 101.457031 132.703125 104.214844 C 132.464844 106.785156 132.796875 108.441406 133.128906 110.101562 C 133.128906 110.101562 133.535156 110.667969 133.910156 110.769531 M 23.617188 118.527344 C 23.617188 118.527344 23.769531 118.460938 23.617188 118.527344 Z M 23.617188 118.527344 " stroke="none" fill-rule="nonzero" fill="rgb(99.607843%,99.607843%,99.607843%)" fill-opacity="1"/>
    <path d="M 146.082031 28.492188 C 144.785156 29.03125 143.375 29.03125 141.160156 28.5 C 138.476562 25.644531 136.59375 23.320312 135.132812 20.804688 C 135.9375 20.1875 136.328125 19.769531 136.714844 19.347656 C 139.796875 22.214844 142.878906 25.085938 146.082031 28.492188 Z M 146.082031 28.492188 " stroke="none" fill-rule="nonzero" fill="rgb(11.764706%,15.294118%,19.607843%)" fill-opacity="1"/>
    <path d="M 136.269531 18.945312 C 136.328125 19.769531 135.9375 20.1875 134.472656 20.796875 C 132.070312 20.960938 130.75 20.941406 129.425781 20.917969 C 129.332031 20.207031 129.242188 19.496094 129.289062 18.257812 C 131.5625 18 133.695312 18.269531 136.269531 18.945312 Z M 136.269531 18.945312 " stroke="none" fill-rule="nonzero" fill="rgb(13.333333%,15.686275%,19.215686%)" fill-opacity="1"/>
    <path d="M 47.445312 147.308594 C 48.257812 146.886719 49.101562 146.835938 50.578125 146.8125 C 50.34375 147.335938 49.472656 147.828125 48.0625 148.371094 C 47.519531 148.417969 47.472656 147.675781 47.445312 147.308594 Z M 47.445312 147.308594 " stroke="none" fill-rule="nonzero" fill="rgb(16.078431%,19.215686%,23.529412%)" fill-opacity="1"/>
    <path d="M 47.621094 125.816406 C 47.917969 116.550781 48.214844 107.285156 49.320312 97.066406 C 50.824219 93.679688 51.523438 91.246094 52.492188 88.960938 C 53.507812 89 54.253906 88.894531 55.472656 88.917969 C 56.832031 89.425781 57.71875 89.800781 58.582031 90.808594 C 57.382812 97.375 55.769531 103.277344 55.128906 109.253906 C 54.078125 118.996094 53.664062 128.789062 52.359375 138.660156 C 49.007812 140.746094 46.285156 142.730469 43.5625 144.710938 C 40.980469 144.769531 38.402344 144.828125 34.886719 144.285156 C 31.972656 142.082031 29.015625 140.757812 28.261719 138.816406 C 27.300781 136.332031 28.113281 133.351562 28.507812 131.085938 C 32.929688 135.445312 36.855469 139.707031 44.535156 135.582031 C 47.09375 133.851562 49.003906 132.171875 50.9375 129.949219 C 49.84375 128.207031 48.730469 127.011719 47.621094 125.816406 Z M 47.621094 125.816406 " stroke="none" fill-rule="nonzero" fill="rgb(44.705882%,47.058824%,49.411765%)" fill-opacity="1"/>
    <path d="M 91.234375 145 C 82.300781 145.046875 73.363281 145.089844 63.894531 144.589844 C 63.765625 139.039062 64.171875 134.035156 64.574219 128.363281 C 64.578125 125.457031 64.589844 123.226562 65.414062 120.984375 C 69.476562 120.96875 72.730469 120.957031 76.441406 120.960938 C 76.898438 120.972656 77.8125 121.003906 77.820312 121.613281 C 78.675781 124.113281 79.316406 126.09375 80.410156 127.878906 C 83.929688 133.625 87.613281 139.300781 91.234375 145 Z M 91.234375 145 " stroke="none" fill-rule="nonzero" fill="rgb(6.666667%,10.196078%,15.686275%)" fill-opacity="1"/>
    <path d="M 19.171875 103.300781 C 19.433594 110.304688 19.695312 117.308594 19.601562 124.839844 C 18.910156 125.445312 18.574219 125.523438 17.6875 125.640625 C 16.40625 125.625 15.675781 125.570312 14.941406 125.515625 C 13.738281 122.253906 12.535156 118.992188 11.300781 115.132812 C 11.90625 111.230469 12.542969 107.925781 13.789062 103.9375 C 15.988281 103.269531 17.578125 103.285156 19.171875 103.300781 Z M 19.171875 103.300781 " stroke="none" fill-rule="nonzero" fill="rgb(9.019608%,12.156863%,16.862745%)" fill-opacity="1"/>
    <path d="M 91.960938 145.042969 C 87.613281 139.300781 83.929688 133.625 80.410156 127.878906 C 79.316406 126.09375 78.675781 124.113281 78.472656 121.699219 C 81.484375 123.832031 83.703125 126.597656 86.257812 129.121094 C 89.039062 131.867188 92.128906 134.386719 95.550781 137.316406 C 97.554688 139.585938 99.09375 141.535156 100.632812 143.488281 C 97.984375 144.019531 95.335938 144.550781 91.960938 145.042969 Z M 91.960938 145.042969 " stroke="none" fill-rule="nonzero" fill="rgb(12.941176%,16.470588%,21.568627%)" fill-opacity="1"/>
    <path d="M 18.234375 125.605469 C 18.574219 125.523438 18.910156 125.445312 19.703125 125.585938 C 22.457031 126.769531 24.75 127.726562 27.675781 129.296875 C 28.304688 129.90625 28.160156 130.585938 28.160156 130.585938 C 28.113281 133.351562 27.300781 136.332031 28.261719 138.816406 C 29.015625 140.757812 31.972656 142.082031 34.117188 144.1875 C 32.320312 144.773438 30.351562 144.859375 27.449219 144.328125 C 23.753906 137.679688 20.996094 131.644531 18.234375 125.605469 Z M 18.234375 125.605469 " stroke="none" fill-rule="nonzero" fill="rgb(35.686275%,38.039216%,41.176471%)" fill-opacity="1"/>
    <path d="M 17.6875 125.640625 C 20.996094 131.644531 23.753906 137.679688 26.710938 144.246094 C 24.816406 144.875 22.730469 144.976562 19.738281 144.496094 C 17.488281 141.535156 16.152344 139.160156 14.8125 136.78125 C 14.828125 133.507812 14.84375 130.234375 14.898438 126.238281 C 15.675781 125.570312 16.40625 125.625 17.6875 125.640625 Z M 17.6875 125.640625 " stroke="none" fill-rule="nonzero" fill="rgb(16.470588%,18.823529%,23.529412%)" fill-opacity="1"/>
    <path d="M 101.289062 143.515625 C 99.09375 141.535156 97.554688 139.585938 95.550781 136.855469 C 95.960938 134.769531 96.835938 133.464844 98.203125 132.542969 C 100.511719 133.835938 102.335938 134.746094 104.542969 135.84375 C 105.417969 136.320312 105.820312 136.6875 105.753906 137.484375 C 107.589844 138.871094 109.792969 139.898438 111.839844 141.367188 C 111.5625 142.105469 111.449219 142.402344 111.332031 142.695312 C 108.203125 142.976562 105.074219 143.257812 101.289062 143.515625 Z M 101.289062 143.515625 " stroke="none" fill-rule="nonzero" fill="rgb(35.686275%,38.823529%,42.352941%)" fill-opacity="1"/>
    <path d="M 64.578125 129.03125 C 64.171875 134.035156 63.765625 139.039062 63.007812 144.5625 C 62.328125 145.074219 61.996094 145.066406 61.195312 144.386719 C 60.160156 140.96875 59.597656 138.222656 59.011719 134.84375 C 59.089844 132.53125 59.191406 130.847656 59.945312 129.136719 C 61.925781 129.082031 63.25 129.058594 64.578125 129.03125 Z M 64.578125 129.03125 " stroke="none" fill-rule="nonzero" fill="rgb(10.196078%,13.72549%,18.823529%)" fill-opacity="1"/>
    <path d="M 59.035156 135.476562 C 59.597656 138.222656 60.160156 140.96875 60.699219 144.339844 C 58.261719 144.394531 55.847656 143.828125 53.21875 142.566406 C 53 141.871094 53 141.5625 53.609375 141.441406 C 55.820312 139.375 57.429688 137.425781 59.035156 135.476562 Z M 59.035156 135.476562 " stroke="none" fill-rule="nonzero" fill="rgb(16.078431%,19.215686%,23.529412%)" fill-opacity="1"/>
    <path d="M 14.164062 137.003906 C 16.152344 139.160156 17.488281 141.535156 18.953125 144.457031 C 11.382812 145.417969 8.859375 143.171875 14.164062 137.003906 Z M 14.164062 137.003906 " stroke="none" fill-rule="nonzero" fill="rgb(9.019608%,12.156863%,16.862745%)" fill-opacity="1"/>
    <path d="M 130.964844 138.671875 C 130.398438 139.441406 129.828125 140.210938 129.15625 141.429688 C 129.050781 141.878906 128.6875 142.578125 128.027344 143.148438 C 127.148438 143.984375 126.929688 144.257812 126.714844 144.53125 C 124.199219 144.25 121.6875 143.96875 119.507812 142.371094 C 120.320312 140.445312 120.792969 139.835938 121.886719 139.015625 C 124.140625 138.289062 125.78125 137.773438 127.75 137.597656 C 129.058594 138.195312 130.039062 138.453125 131.007812 138.703125 C 130.996094 138.695312 130.964844 138.671875 130.964844 138.671875 Z M 130.964844 138.671875 " stroke="none" fill-rule="nonzero" fill="rgb(58.039216%,59.607843%,61.568627%)" fill-opacity="1"/>
    <path d="M 44.21875 144.851562 C 46.285156 142.730469 49.007812 140.746094 52.40625 139.164062 C 53.054688 140.230469 53.027344 140.894531 53 141.5625 C 53 141.5625 53 141.871094 53.101562 142 C 50.429688 143.085938 47.652344 144.039062 44.21875 144.851562 Z M 44.21875 144.851562 " stroke="none" fill-rule="nonzero" fill="rgb(35.686275%,38.039216%,41.176471%)" fill-opacity="1"/>
    <path d="M 121.269531 139.222656 C 120.792969 139.835938 120.320312 140.445312 118.957031 141.90625 C 116.144531 142.988281 114.226562 143.222656 111.816406 143.078125 C 111.449219 142.402344 111.5625 142.105469 111.875 140.871094 C 112.070312 139.605469 112.074219 139.277344 112.839844 138.972656 C 116.164062 139.070312 118.714844 139.144531 121.269531 139.222656 Z M 121.269531 139.222656 " stroke="none" fill-rule="nonzero" fill="rgb(44.705882%,47.058824%,49.411765%)" fill-opacity="1"/>
    <path d="M 127.109375 144.679688 C 126.929688 144.257812 127.148438 143.984375 127.898438 143.511719 C 128.121094 143.820312 127.808594 144.324219 127.109375 144.679688 Z M 127.109375 144.679688 " stroke="none" fill-rule="nonzero" fill="rgb(35.686275%,38.823529%,42.352941%)" fill-opacity="1"/>
    <path d="M 19.507812 30.640625 C 19.699219 40.511719 19.890625 50.382812 19.671875 60.476562 C 18.878906 60.46875 18.5 60.238281 18.117188 60.011719 C 17.023438 58.683594 15.929688 57.355469 14.582031 55.410156 C 13.890625 50.398438 13.457031 46.011719 13.503906 40.640625 C 13.644531 37.738281 13.304688 35.820312 12.964844 33.898438 C 12.964844 33.898438 13.015625 33.125 13.152344 32.324219 C 13.316406 31.246094 13.347656 30.964844 13.988281 30.671875 C 16.234375 30.65625 17.871094 30.648438 19.507812 30.640625 Z M 19.507812 30.640625 " stroke="none" fill-rule="nonzero" fill="rgb(16.470588%,18.823529%,23.529412%)" fill-opacity="1"/>
    <path d="M 19.539062 102.699219 C 17.578125 103.285156 15.988281 103.269531 13.796875 103.269531 C 13.195312 100.511719 13.199219 97.742188 13.703125 93.878906 C 14.496094 88.625 14.78125 84.460938 15.066406 80.300781 C 15.570312 76.046875 16.074219 71.789062 17.339844 66.863281 C 18.503906 66.164062 18.910156 66.136719 19.3125 66.105469 C 19.511719 78.101562 19.710938 90.101562 19.539062 102.699219 Z M 19.539062 102.699219 " stroke="none" fill-rule="nonzero" fill="rgb(12.941176%,15.294118%,20%)" fill-opacity="1"/>
    <path d="M 14.398438 80.554688 C 14.78125 84.460938 14.496094 88.625 13.722656 93.1875 C 13.402344 89.332031 13.566406 85.070312 14.398438 80.554688 Z M 14.398438 80.554688 " stroke="none" fill-rule="nonzero" fill="rgb(16.470588%,18.823529%,23.529412%)" fill-opacity="1"/>
    <path d="M 18.058594 60.386719 C 18.5 60.238281 18.878906 60.46875 19.550781 61.257812 C 19.835938 61.820312 19.472656 62.128906 18.917969 62.121094 C 18.359375 62.117188 17.554688 62.242188 17.554688 62.242188 C 17.835938 61.777344 17.984375 61.285156 18.058594 60.386719 Z M 18.058594 60.386719 " stroke="none" fill-rule="nonzero" fill="rgb(52.941176%,54.117647%,58.039216%)" fill-opacity="1"/>
    <path d="M 19.574219 65.714844 C 18.910156 66.136719 18.503906 66.164062 17.496094 66.25 C 16.863281 65.976562 16.835938 65.648438 17.460938 64.882812 C 18.511719 64.480469 18.910156 64.507812 19.3125 64.539062 C 19.488281 64.800781 19.664062 65.0625 19.574219 65.714844 Z M 19.574219 65.714844 " stroke="none" fill-rule="nonzero" fill="rgb(16.470588%,18.823529%,23.529412%)" fill-opacity="1"/>
    <path d="M 19.535156 63.925781 C 18.910156 64.507812 18.511719 64.480469 17.507812 64.390625 C 16.964844 63.976562 17.027344 63.617188 17.320312 62.75 C 17.554688 62.242188 18.359375 62.117188 18.769531 62.125 C 19.371094 62.523438 19.566406 62.917969 19.535156 63.925781 Z M 19.535156 63.925781 " stroke="none" fill-rule="nonzero" fill="rgb(12.941176%,15.294118%,20%)" fill-opacity="1"/>
    <path d="M 54.589844 19.238281 C 53.484375 17.578125 52.378906 15.917969 51.238281 13.652344 C 53.941406 11.925781 56.644531 9.898438 59.414062 9.835938 C 73.242188 9.511719 87.089844 9.707031 101.832031 9.742188 C 102.648438 11.984375 102.566406 14.203125 101.683594 17.171875 C 96.085938 19.792969 92.003906 22.089844 93.074219 28.050781 C 93.074219 32.011719 93.058594 35.363281 92.371094 38.789062 C 88.371094 39.882812 85.039062 40.902344 81.691406 41.523438 C 81.671875 41.128906 81.632812 40.339844 81.632812 39.722656 C 77.710938 30.851562 73.308594 22.929688 62.066406 19.035156 C 59.214844 18.867188 56.902344 19.050781 54.589844 19.238281 Z M 54.589844 19.238281 " stroke="none" fill-rule="nonzero" fill="rgb(5.490196%,8.627451%,13.72549%)" fill-opacity="1"/>
    <path d="M 13.378906 30.683594 C 13.347656 30.964844 13.316406 31.246094 13.1875 31.941406 C 11.894531 29.738281 10.007812 27.183594 9.652344 24.484375 C 9.078125 20.097656 9.503906 15.617188 9.503906 10.425781 C 12.207031 9.691406 14.917969 9.707031 18.332031 10.417969 C 18.457031 14.917969 17.875 18.722656 16.679688 22.800781 C 15.167969 25.609375 14.273438 28.148438 13.378906 30.683594 Z M 13.378906 30.683594 " stroke="none" fill-rule="nonzero" fill="rgb(6.27451%,8.627451%,12.941176%)" fill-opacity="1"/>
    <path d="M 17.296875 22.523438 C 17.875 18.722656 18.457031 14.917969 19.144531 10.449219 C 20.621094 9.753906 21.988281 9.726562 24.023438 9.820312 C 23.71875 14.953125 22.742188 19.96875 20.691406 25.257812 C 18.839844 24.527344 18.066406 23.527344 17.296875 22.523438 Z M 17.296875 22.523438 " stroke="none" fill-rule="nonzero" fill="rgb(96.078431%,96.862745%,99.215686%)" fill-opacity="1"/>
    <path d="M 12.542969 34.265625 C 13.304688 35.820312 13.644531 37.738281 13.441406 39.972656 C 12.640625 38.402344 12.382812 36.519531 12.542969 34.265625 Z M 12.542969 34.265625 " stroke="none" fill-rule="nonzero" fill="rgb(6.27451%,8.627451%,12.941176%)" fill-opacity="1"/>
    <path d="M 129.441406 33.769531 C 129.332031 32.054688 129.222656 30.339844 129.84375 28.019531 C 131.363281 27.398438 132.15625 27.382812 132.929688 27.394531 C 132.910156 27.417969 132.96875 27.390625 133.046875 27.898438 C 134.304688 29.167969 135.480469 29.929688 136.6875 30.671875 C 136.710938 30.648438 136.652344 30.675781 136.648438 31.285156 C 137.46875 33.667969 138.289062 35.441406 139.113281 37.214844 C 139.0625 43.339844 139.011719 49.460938 138.855469 56.402344 C 138.101562 57.042969 137.457031 56.863281 135.253906 56.675781 C 133.019531 56.808594 132.339844 56.953125 131.660156 57.101562 C 131.410156 53.042969 131.160156 48.984375 131.53125 43.839844 C 131.25 39.757812 130.347656 36.761719 129.441406 33.769531 Z M 129.441406 33.769531 " stroke="none" fill-rule="nonzero" fill="rgb(46.27451%,47.843137%,50.980392%)" fill-opacity="1"/>
    <path d="M 131.300781 85.558594 C 131.5625 77.757812 131.820312 69.957031 132.734375 62.074219 C 133.550781 69.121094 133.71875 76.25 133.46875 84.296875 C 133.054688 85.214844 132.511719 85.652344 132.207031 85.644531 C 131.902344 85.636719 131.300781 85.558594 131.300781 85.558594 Z M 131.300781 85.558594 " stroke="none" fill-rule="nonzero" fill="rgb(56.862745%,57.254902%,60.784314%)" fill-opacity="1"/>
    <path d="M 130.832031 90.316406 C 130.828125 90.019531 130.824219 89.722656 131.34375 88.996094 C 131.863281 88.5625 132.4375 88.574219 133.113281 88.625 C 134.242188 88.71875 134.691406 88.761719 135.140625 88.804688 C 134.953125 91.367188 134.761719 93.933594 133.949219 97.125 C 132.28125 96.074219 131.234375 94.398438 130.824219 92.179688 C 131.582031 91.464844 131.851562 91.191406 131.796875 91.132812 C 131.519531 90.828125 131.160156 90.582031 130.832031 90.316406 Z M 130.832031 90.316406 " stroke="none" fill-rule="nonzero" fill="rgb(56.862745%,57.254902%,60.784314%)" fill-opacity="1"/>
    <path d="M 133.816406 109.496094 C 132.796875 108.441406 132.464844 106.785156 132.597656 104.769531 C 133.546875 105.902344 134.023438 107.394531 133.816406 109.496094 Z M 133.816406 109.496094 " stroke="none" fill-rule="nonzero" fill="rgb(61.568627%,62.352941%,64.313725%)" fill-opacity="1"/>
    <path d="M 131.617188 57.578125 C 132.339844 56.953125 133.019531 56.808594 134.746094 56.589844 C 135.429688 57.433594 135.058594 58.351562 134.03125 59.757812 C 132.777344 59.515625 132.175781 58.785156 131.617188 57.578125 Z M 131.617188 57.578125 " stroke="none" fill-rule="nonzero" fill="rgb(56.862745%,57.254902%,60.784314%)" fill-opacity="1"/>
    <path d="M 135.164062 88.238281 C 134.691406 88.761719 134.242188 88.71875 133.210938 88.140625 C 132.59375 86.953125 132.550781 86.300781 132.511719 85.652344 C 132.511719 85.652344 133.054688 85.214844 133.28125 84.960938 C 134.066406 85.695312 134.625 86.683594 135.164062 88.238281 Z M 135.164062 88.238281 " stroke="none" fill-rule="nonzero" fill="rgb(61.568627%,62.352941%,64.313725%)" fill-opacity="1"/>
    <path d="M 142.261719 66.398438 C 142.523438 66.289062 142.515625 66.9375 142.515625 67.257812 C 142.515625 67.582031 141.863281 67.148438 141.863281 67.148438 C 141.863281 67.148438 142 66.507812 142.261719 66.398438 Z M 142.261719 66.398438 " stroke="none" fill-rule="nonzero" fill="rgb(13.333333%,15.686275%,19.215686%)" fill-opacity="1"/>
    <path d="M 129.292969 21.453125 C 130.75 20.941406 132.070312 20.960938 134.054688 20.992188 C 136.59375 23.320312 138.476562 25.644531 140.453125 28.5 C 140.523438 29.753906 140.496094 30.472656 139.96875 31.546875 C 138.53125 31.492188 137.589844 31.082031 136.652344 30.675781 C 136.652344 30.675781 136.710938 30.648438 136.617188 30.15625 C 135.339844 28.90625 134.15625 28.148438 132.96875 27.390625 C 132.96875 27.390625 132.910156 27.417969 132.839844 26.910156 C 131.652344 25.660156 130.535156 24.914062 129.417969 24.167969 C 129.332031 23.441406 129.246094 22.71875 129.292969 21.453125 Z M 129.292969 21.453125 " stroke="none" fill-rule="nonzero" fill="rgb(25.882353%,28.235294%,32.941176%)" fill-opacity="1"/>
    <path d="M 136.648438 31.285156 C 137.589844 31.082031 138.53125 31.492188 139.949219 32.089844 C 140.355469 33.859375 140.285156 35.4375 139.664062 37.117188 C 138.289062 35.441406 137.46875 33.667969 136.648438 31.285156 Z M 136.648438 31.285156 " stroke="none" fill-rule="nonzero" fill="rgb(32.54902%,34.117647%,39.215686%)" fill-opacity="1"/>
    <path d="M 129.128906 125.828125 C 129.789062 124.773438 130.449219 123.71875 131.480469 122.359375 C 132.558594 122.929688 133.265625 123.8125 134.496094 124.949219 C 135.082031 126.578125 135.140625 127.953125 134.609375 129.96875 C 133.644531 130.621094 133.273438 130.632812 132.296875 130.644531 C 130.875 130.660156 130.0625 130.667969 129.203125 130.070312 C 129.148438 128.25 129.140625 127.039062 129.128906 125.828125 Z M 129.128906 125.828125 " stroke="none" fill-rule="nonzero" fill="rgb(61.568627%,62.352941%,64.313725%)" fill-opacity="1"/>
    <path d="M 129.25 130.675781 C 130.0625 130.667969 130.875 130.660156 132.296875 131.171875 C 133.441406 132.941406 133.980469 134.191406 134.519531 135.4375 C 133.726562 136.472656 132.933594 137.507812 131.550781 138.609375 C 130.964844 138.671875 130.996094 138.695312 131.007812 138.226562 C 130.5625 136.628906 130.105469 135.5 129.503906 133.761719 C 129.320312 132.328125 129.285156 131.5 129.25 130.675781 Z M 129.25 130.675781 " stroke="none" fill-rule="nonzero" fill="rgb(58.039216%,59.607843%,61.568627%)" fill-opacity="1"/>
    <path d="M 135.042969 135.203125 C 133.980469 134.191406 133.441406 132.941406 132.90625 131.167969 C 133.273438 130.632812 133.644531 130.621094 134.574219 130.648438 C 135.273438 132.117188 135.417969 133.542969 135.042969 135.203125 Z M 135.042969 135.203125 " stroke="none" fill-rule="nonzero" fill="rgb(46.27451%,47.843137%,50.980392%)" fill-opacity="1"/>
    <path d="M 54.835938 19.707031 C 56.902344 19.050781 59.214844 18.867188 62.167969 19.589844 C 66.867188 25.480469 70.765625 30.570312 75.070312 35.394531 C 76.800781 37.335938 79.417969 38.707031 81.632812 40.339844 C 81.632812 40.339844 81.671875 41.128906 81.734375 42.054688 C 83.621094 44.808594 85.445312 46.636719 87.296875 49.082031 C 87.925781 52.53125 88.527344 55.363281 88.597656 57.933594 C 85.386719 56.175781 82.710938 54.683594 80.03125 53.191406 C 71.714844 42.183594 63.398438 31.179688 54.835938 19.707031 Z M 54.835938 19.707031 " stroke="none" fill-rule="nonzero" fill="rgb(15.686275%,17.647059%,22.352941%)" fill-opacity="1"/>
    <path d="M 100.753906 25.609375 C 101.382812 29.332031 102.464844 33.046875 102.558594 36.777344 C 102.800781 46.582031 102.613281 56.398438 102.09375 66.949219 C 101.589844 67.691406 100.769531 67.789062 100.042969 67.769531 C 96.601562 65.582031 93.890625 63.417969 91.949219 61.226562 C 94.082031 59.742188 96.46875 58.359375 96.625 56.8125 C 97.628906 47.050781 98.136719 37.25 99.226562 27.234375 C 100.015625 26.539062 100.382812 26.074219 100.753906 25.609375 Z M 100.753906 25.609375 " stroke="none" fill-rule="nonzero" fill="rgb(19.215686%,21.960784%,25.882353%)" fill-opacity="1"/>
    <path d="M 129.203125 130.070312 C 129.285156 131.5 129.320312 132.328125 129.183594 134.09375 C 128.480469 135.777344 127.949219 136.515625 127.417969 137.253906 C 125.78125 137.773438 124.140625 138.289062 121.886719 139.015625 C 118.714844 139.144531 116.164062 139.070312 112.457031 138.496094 C 109.578125 137.710938 107.851562 137.417969 106.125 137.125 C 105.820312 136.6875 105.417969 136.320312 104.566406 135.304688 C 102.433594 132.710938 100.660156 130.839844 98.839844 128.464844 C 98.738281 127.289062 98.683594 126.613281 98.625 125.941406 C 101.464844 126.1875 104.300781 126.429688 107.742188 127.6875 C 112.449219 130.359375 116.425781 132.554688 120.742188 133.273438 C 121.757812 133.441406 123.921875 128.609375 125.558594 126.078125 C 126.351562 126.011719 127.144531 125.949219 128.53125 125.855469 C 129.140625 127.039062 129.148438 128.25 129.203125 130.070312 Z M 129.203125 130.070312 " stroke="none" fill-rule="nonzero" fill="rgb(75.294118%,76.078431%,77.647059%)" fill-opacity="1"/>
    <path d="M 28.507812 131.085938 C 28.160156 130.585938 28.304688 129.90625 28.273438 129.558594 C 33.492188 128.105469 38.746094 126.996094 44.796875 126.5 C 45.621094 128.308594 45.648438 129.503906 45.582031 131.214844 C 44.960938 133.03125 44.425781 134.332031 43.894531 135.636719 C 36.855469 139.707031 32.929688 135.445312 28.507812 131.085938 Z M 28.507812 131.085938 " stroke="none" fill-rule="nonzero" fill="rgb(79.215686%,79.607843%,80.784314%)" fill-opacity="1"/>
    <path d="M 91.175781 61.25 C 93.890625 63.417969 96.601562 65.582031 99.988281 68.402344 C 99.363281 70.875 98.066406 72.695312 96.769531 74.511719 C 91.09375 67.792969 85.417969 61.074219 79.886719 53.773438 C 82.710938 54.683594 85.386719 56.175781 88.839844 58.320312 C 90.136719 59.730469 90.65625 60.492188 91.175781 61.25 Z M 91.175781 61.25 " stroke="none" fill-rule="nonzero" fill="rgb(25.098039%,27.843137%,30.588235%)" fill-opacity="1"/>
    <path d="M 124.773438 126.070312 C 123.921875 128.609375 121.757812 133.441406 120.742188 133.273438 C 116.425781 132.554688 112.449219 130.359375 108.230469 128.121094 C 113.40625 127.050781 118.695312 126.558594 124.773438 126.070312 Z M 124.773438 126.070312 " stroke="none" fill-rule="nonzero" fill="rgb(86.666667%,87.058824%,88.627451%)" fill-opacity="1"/>
    <path d="M 96.886719 75.105469 C 98.066406 72.695312 99.363281 70.875 100.714844 68.421875 C 100.769531 67.789062 101.589844 67.691406 102.003906 67.699219 C 103.101562 72.902344 103.78125 78.097656 104.464844 83.292969 C 103.144531 83.472656 101.820312 83.652344 100.5 83.832031 C 99.335938 81.121094 98.171875 78.40625 96.886719 75.105469 Z M 96.886719 75.105469 " stroke="none" fill-rule="nonzero" fill="rgb(88.627451%,89.803922%,91.372549%)" fill-opacity="1"/>
    <path d="M 77.726562 98.414062 C 80.066406 101.617188 82.40625 104.820312 84.394531 108.757812 C 83.511719 109.75 82.980469 110.011719 81.882812 110.136719 C 78.484375 106.648438 75.652344 103.296875 73.28125 99.71875 C 75.070312 99.132812 76.398438 98.773438 77.726562 98.414062 Z M 77.726562 98.414062 " stroke="none" fill-rule="nonzero" fill="rgb(53.333333%,54.901961%,56.862745%)" fill-opacity="1"/>
    <path d="M 62.296875 74.390625 C 62.875 75.628906 63.453125 76.871094 63.304688 78.59375 C 58.464844 80.394531 54.351562 81.714844 50.234375 83.035156 C 49.386719 81.085938 48.539062 79.132812 48.492188 76.535156 C 51.183594 75.820312 53.070312 75.753906 55.527344 75.683594 C 57.015625 75.203125 57.9375 74.726562 59.4375 74.257812 C 60.773438 74.308594 61.535156 74.347656 62.296875 74.390625 Z M 62.296875 74.390625 " stroke="none" fill-rule="nonzero" fill="rgb(70.196078%,70.196078%,70.980392%)" fill-opacity="1"/>
    <path d="M 50.234375 83.199219 C 54.351562 81.714844 58.464844 80.394531 63.378906 79.09375 C 65.570312 80.863281 66.964844 82.613281 67.773438 84.910156 C 66.320312 85.457031 65.449219 85.460938 64.0625 85.132812 C 60.121094 84.542969 56.699219 84.285156 52.582031 83.929688 C 51.4375 83.75 50.980469 83.660156 50.527344 83.570312 C 50.527344 83.570312 50.238281 83.359375 50.234375 83.199219 Z M 50.234375 83.199219 " stroke="none" fill-rule="nonzero" fill="rgb(61.568627%,63.137255%,65.490196%)" fill-opacity="1"/>
    <path d="M 100.707031 25.015625 C 100.382812 26.074219 100.015625 26.539062 98.507812 27.21875 C 95.933594 27.4375 94.496094 27.4375 93.058594 27.4375 C 92.003906 22.089844 96.085938 19.792969 101.539062 17.828125 C 101.683594 19.960938 101.171875 22.191406 100.707031 25.015625 Z M 100.707031 25.015625 " stroke="none" fill-rule="nonzero" fill="rgb(7.45098%,10.980392%,16.078431%)" fill-opacity="1"/>
    <path d="M 54.960938 75.683594 C 53.070312 75.753906 51.183594 75.820312 48.597656 75.957031 C 49.65625 74.082031 51.203125 70.757812 53.21875 70.535156 C 56.058594 70.226562 59.246094 72.21875 62.289062 73.808594 C 61.535156 74.347656 60.773438 74.308594 59.109375 73.910156 C 57.125 74.265625 56.042969 74.976562 54.960938 75.683594 Z M 54.960938 75.683594 " stroke="none" fill-rule="nonzero" fill="rgb(82.352941%,82.352941%,83.137255%)" fill-opacity="1"/>
    <path d="M 98.109375 125.644531 C 98.683594 126.613281 98.738281 127.289062 98.1875 128.53125 C 97.144531 129.160156 96.710938 129.222656 95.652344 129.171875 C 92.886719 126.371094 90.742188 123.683594 89.199219 120.972656 C 90.828125 120.46875 91.859375 119.992188 92.894531 119.515625 C 94.460938 121.460938 96.027344 123.40625 98.109375 125.644531 Z M 98.109375 125.644531 " stroke="none" fill-rule="nonzero" fill="rgb(58.823529%,59.215686%,60.784314%)" fill-opacity="1"/>
    <path d="M 16.679688 22.800781 C 18.066406 23.527344 18.839844 24.527344 20.152344 25.695312 C 20.488281 27.074219 20.285156 28.285156 19.792969 30.070312 C 17.871094 30.648438 16.234375 30.65625 13.988281 30.671875 C 14.273438 28.148438 15.167969 25.609375 16.679688 22.800781 Z M 16.679688 22.800781 " stroke="none" fill-rule="nonzero" fill="rgb(12.941176%,15.294118%,20%)" fill-opacity="1"/>
    <path d="M 64.578125 85.460938 C 65.449219 85.460938 66.320312 85.457031 67.839844 85.445312 C 70.199219 87.800781 71.90625 90.167969 73.136719 93.066406 C 71.742188 93.65625 70.824219 93.714844 69.492188 93.730469 C 69.082031 93.691406 68.261719 93.609375 68.210938 93.089844 C 67.007812 91.71875 65.855469 90.859375 64.683594 89.4375 C 64.636719 87.730469 64.605469 86.597656 64.578125 85.460938 Z M 64.578125 85.460938 " stroke="none" fill-rule="nonzero" fill="rgb(54.509804%,56.470588%,58.039216%)" fill-opacity="1"/>
    <path d="M 69.902344 93.769531 C 70.824219 93.714844 71.742188 93.65625 73.351562 93.574219 C 75.222656 94.832031 76.40625 96.117188 77.65625 97.90625 C 76.398438 98.773438 75.070312 99.132812 72.722656 99.671875 C 71.335938 99.808594 70.972656 99.765625 70.515625 99.121094 C 70.253906 96.941406 70.078125 95.355469 69.902344 93.769531 Z M 69.902344 93.769531 " stroke="none" fill-rule="nonzero" fill="rgb(47.843137%,49.803922%,52.54902%)" fill-opacity="1"/>
    <path d="M 92.75 119.019531 C 91.859375 119.992188 90.828125 120.46875 88.609375 120.871094 C 86.757812 119.59375 86.09375 118.390625 85.6875 116.808594 C 87.078125 115.769531 88.207031 115.109375 89.335938 114.449219 C 90.425781 115.808594 91.515625 117.164062 92.75 119.019531 Z M 92.75 119.019531 " stroke="none" fill-rule="nonzero" fill="rgb(41.568627%,43.137255%,46.27451%)" fill-opacity="1"/>
    <path d="M 89.339844 113.941406 C 88.207031 115.109375 87.078125 115.769531 85.199219 116.492188 C 83.78125 114.460938 83.117188 112.367188 82.449219 110.269531 C 82.980469 110.011719 83.511719 109.75 84.894531 109.160156 C 86.949219 110.363281 88.148438 111.898438 89.339844 113.941406 Z M 89.339844 113.941406 " stroke="none" fill-rule="nonzero" fill="rgb(59.607843%,60.784314%,63.137255%)" fill-opacity="1"/>
    <path d="M 129.296875 34.394531 C 130.347656 36.761719 131.25 39.757812 131.636719 43.152344 C 130.460938 40.707031 129.808594 37.863281 129.296875 34.394531 Z M 129.296875 34.394531 " stroke="none" fill-rule="nonzero" fill="rgb(61.568627%,62.352941%,64.313725%)" fill-opacity="1"/>
    <path d="M 45.675781 130.699219 C 45.648438 129.503906 45.621094 128.308594 45.621094 126.511719 C 45.972656 125.851562 46.296875 125.785156 47.121094 125.769531 C 48.730469 127.011719 49.84375 128.207031 50.289062 129.988281 C 48.304688 130.613281 46.992188 130.65625 45.675781 130.699219 Z M 45.675781 130.699219 " stroke="none" fill-rule="nonzero" fill="rgb(67.058824%,68.235294%,69.803922%)" fill-opacity="1"/>
    <path d="M 52.21875 88.816406 C 51.523438 91.246094 50.824219 93.679688 49.457031 96.398438 C 48.902344 93.628906 49.023438 90.570312 50.273438 87.578125 C 51.675781 88.035156 51.945312 88.425781 52.21875 88.816406 Z M 52.21875 88.816406 " stroke="none" fill-rule="nonzero" fill="rgb(59.607843%,60.784314%,63.137255%)" fill-opacity="1"/>
    <path d="M 129.289062 24.695312 C 130.535156 24.914062 131.652344 25.660156 132.855469 26.886719 C 132.15625 27.382812 131.363281 27.398438 129.980469 27.386719 C 129.3125 26.644531 129.234375 25.933594 129.289062 24.695312 Z M 129.289062 24.695312 " stroke="none" fill-rule="nonzero" fill="rgb(32.54902%,34.117647%,39.215686%)" fill-opacity="1"/>
    <path d="M 52.492188 88.960938 C 51.945312 88.425781 51.675781 88.035156 50.863281 87.132812 C 50.328125 86.617188 50.320312 85.84375 51.082031 85.769531 C 52.265625 85.792969 52.6875 85.898438 53.34375 86.339844 C 54.054688 87.382812 54.527344 88.085938 55 88.785156 C 54.253906 88.894531 53.507812 89 52.492188 88.960938 Z M 52.492188 88.960938 " stroke="none" fill-rule="nonzero" fill="rgb(40.392157%,42.352941%,45.490196%)" fill-opacity="1"/>
    <path d="M 132.207031 85.644531 C 132.550781 86.300781 132.59375 86.953125 132.535156 88.089844 C 132.4375 88.574219 131.863281 88.5625 131.582031 88.597656 C 131.199219 87.949219 131.09375 87.257812 131.148438 86.066406 C 131.300781 85.558594 131.902344 85.636719 132.207031 85.644531 Z M 132.207031 85.644531 " stroke="none" fill-rule="nonzero" fill="rgb(46.27451%,47.843137%,50.980392%)" fill-opacity="1"/>
    <path d="M 53.105469 86.003906 C 52.6875 85.898438 52.265625 85.792969 51.273438 85.414062 C 50.566406 84.886719 50.4375 84.632812 50.417969 83.976562 C 50.980469 83.660156 51.4375 83.75 52.539062 84.425781 C 53.160156 85.339844 53.132812 85.671875 53.105469 86.003906 Z M 53.105469 86.003906 " stroke="none" fill-rule="nonzero" fill="rgb(54.509804%,56.078431%,58.823529%)" fill-opacity="1"/>
    <path d="M 23.695312 118.496094 C 23.769531 118.460938 23.617188 118.527344 23.695312 118.496094 Z M 23.695312 118.496094 " stroke="none" fill-rule="nonzero" fill="rgb(96.078431%,96.862745%,99.215686%)" fill-opacity="1"/>
    <path d="M 130.726562 90.707031 C 131.160156 90.582031 131.519531 90.828125 131.796875 91.132812 C 131.851562 91.191406 131.582031 91.464844 131.132812 91.761719 C 130.804688 91.886719 130.621094 91.097656 130.726562 90.707031 Z M 130.726562 90.707031 " stroke="none" fill-rule="nonzero" fill="rgb(61.568627%,62.352941%,64.313725%)" fill-opacity="1"/>
    <path d="M 69.492188 93.730469 C 70.078125 95.355469 70.253906 96.941406 69.695312 99.214844 C 57.882812 98.855469 58.5 105.136719 58.988281 112.089844 C 59.070312 118.269531 59.183594 123.71875 59.296875 129.164062 C 59.191406 130.847656 59.089844 132.53125 59.011719 134.84375 C 57.429688 137.425781 55.820312 139.375 53.609375 141.441406 C 53.027344 140.894531 53.054688 140.230469 53.03125 139.0625 C 53.664062 128.789062 54.078125 118.996094 55.128906 109.253906 C 55.769531 103.277344 57.382812 97.375 59.273438 90.824219 C 60.894531 90.222656 61.808594 90.242188 62.964844 90.738281 C 64.890625 92.011719 66.578125 92.808594 68.261719 93.609375 C 68.261719 93.609375 69.082031 93.691406 69.492188 93.730469 Z M 69.492188 93.730469 " stroke="none" fill-rule="nonzero" fill="rgb(30.196078%,32.54902%,36.078431%)" fill-opacity="1"/>
    <path d="M 62.722656 90.265625 C 61.808594 90.242188 60.894531 90.222656 59.292969 90.1875 C 57.71875 89.800781 56.832031 89.425781 55.472656 88.917969 C 54.527344 88.085938 54.054688 87.382812 53.34375 86.339844 C 53.132812 85.671875 53.160156 85.339844 53.230469 84.515625 C 56.699219 84.285156 60.121094 84.542969 64.0625 85.132812 C 64.605469 86.597656 64.636719 87.730469 64.191406 89.523438 C 63.386719 90.207031 63.054688 90.234375 62.722656 90.265625 Z M 62.722656 90.265625 " stroke="none" fill-rule="nonzero" fill="rgb(49.019608%,50.980392%,54.117647%)" fill-opacity="1"/>
    <path d="M 45.582031 131.214844 C 46.992188 130.65625 48.304688 130.613281 50.269531 130.53125 C 49.003906 132.171875 47.09375 133.851562 44.535156 135.582031 C 44.425781 134.332031 44.960938 133.03125 45.582031 131.214844 Z M 45.582031 131.214844 " stroke="none" fill-rule="nonzero" fill="rgb(59.607843%,60.784314%,63.137255%)" fill-opacity="1"/>
    <path d="M 59.023438 111.355469 C 58.5 105.136719 57.882812 98.855469 69.785156 99.808594 C 70.972656 99.765625 71.335938 99.808594 72.261719 99.898438 C 75.652344 103.296875 78.484375 106.648438 81.882812 110.136719 C 83.117188 112.367188 83.78125 114.460938 84.9375 116.871094 C 86.09375 118.390625 86.757812 119.59375 88.011719 120.894531 C 90.742188 123.683594 92.886719 126.371094 95.835938 129.53125 C 97 130.726562 97.359375 131.445312 97.714844 132.164062 C 96.835938 133.464844 95.960938 134.769531 95.085938 136.539062 C 92.128906 134.386719 89.039062 131.867188 86.257812 129.121094 C 83.703125 126.597656 81.484375 123.832031 78.464844 121.089844 C 77.8125 121.003906 76.898438 120.972656 76.359375 120.378906 C 74.59375 116.953125 73.375 114.121094 72.070312 110.734375 C 70.203125 108.378906 68.421875 106.574219 66.539062 104.675781 C 63.417969 107.449219 61.21875 109.402344 59.023438 111.355469 Z M 59.023438 111.355469 " stroke="none" fill-rule="nonzero" fill="rgb(21.176471%,23.921569%,28.627451%)" fill-opacity="1"/>
    <path d="M 58.988281 112.089844 C 61.21875 109.402344 63.417969 107.449219 66.539062 104.675781 C 68.421875 106.574219 70.203125 108.378906 71.300781 110.742188 C 61.460938 111.332031 65.503906 117.269531 64.601562 120.992188 C 64.589844 123.226562 64.578125 125.457031 64.574219 128.363281 C 63.25 129.058594 61.925781 129.082031 59.945312 129.136719 C 59.183594 123.71875 59.070312 118.269531 58.988281 112.089844 Z M 58.988281 112.089844 " stroke="none" fill-rule="nonzero" fill="rgb(16.078431%,19.215686%,23.529412%)" fill-opacity="1"/>
    <path d="M 65.414062 120.984375 C 65.503906 117.269531 61.460938 111.332031 71.382812 111.296875 C 73.375 114.121094 74.59375 116.953125 75.902344 120.367188 C 72.730469 120.957031 69.476562 120.96875 65.414062 120.984375 Z M 65.414062 120.984375 " stroke="none" fill-rule="nonzero" fill="rgb(10.196078%,13.72549%,18.823529%)" fill-opacity="1"/>
    <path d="M 98.203125 132.542969 C 97.359375 131.445312 97 130.726562 96.460938 129.644531 C 96.710938 129.222656 97.144531 129.160156 98.230469 129.035156 C 100.660156 130.839844 102.433594 132.710938 104.183594 135.117188 C 102.335938 134.746094 100.511719 133.835938 98.203125 132.542969 Z M 98.203125 132.542969 " stroke="none" fill-rule="nonzero" fill="rgb(53.333333%,55.686275%,58.431373%)" fill-opacity="1"/>
    <path d="M 105.753906 137.484375 C 107.851562 137.417969 109.578125 137.710938 111.6875 138.476562 C 112.074219 139.277344 112.070312 139.605469 112.035156 140.425781 C 109.792969 139.898438 107.589844 138.871094 105.753906 137.484375 Z M 105.753906 137.484375 " stroke="none" fill-rule="nonzero" fill="rgb(58.039216%,59.607843%,61.568627%)" fill-opacity="1"/>
    <path d="M 127.75 137.597656 C 127.949219 136.515625 128.480469 135.777344 129.328125 134.703125 C 130.105469 135.5 130.5625 136.628906 131.015625 138.234375 C 130.039062 138.453125 129.058594 138.195312 127.75 137.597656 Z M 127.75 137.597656 " stroke="none" fill-rule="nonzero" fill="rgb(46.27451%,47.843137%,50.980392%)" fill-opacity="1"/>
    <path d="M 93.074219 28.050781 C 94.496094 27.4375 95.933594 27.4375 98.089844 27.449219 C 98.136719 37.25 97.628906 47.050781 96.625 56.8125 C 96.46875 58.359375 94.082031 59.742188 91.949219 61.226562 C 90.65625 60.492188 90.136719 59.730469 89.375 58.582031 C 88.527344 55.363281 87.925781 52.53125 87.945312 49.105469 C 98.125 47.90625 90.792969 41.730469 93.042969 38.710938 C 93.058594 35.363281 93.074219 32.011719 93.074219 28.050781 Z M 93.074219 28.050781 " stroke="none" fill-rule="nonzero" fill="rgb(10.588235%,14.509804%,18.431373%)" fill-opacity="1"/>
    <path d="M 81.632812 39.722656 C 79.417969 38.707031 76.800781 37.335938 75.070312 35.394531 C 70.765625 30.570312 66.867188 25.480469 62.707031 19.945312 C 73.308594 22.929688 77.710938 30.851562 81.632812 39.722656 Z M 81.632812 39.722656 " stroke="none" fill-rule="nonzero" fill="rgb(9.019608%,11.764706%,17.254902%)" fill-opacity="1"/>
    <path d="M 92.371094 38.789062 C 90.792969 41.730469 98.125 47.90625 87.914062 48.488281 C 85.445312 46.636719 83.621094 44.808594 81.753906 42.449219 C 85.039062 40.902344 88.371094 39.882812 92.371094 38.789062 Z M 92.371094 38.789062 " stroke="none" fill-rule="nonzero" fill="rgb(7.058824%,10.588235%,15.294118%)" fill-opacity="1"/>
    <path d="M 133.046875 27.898438 C 134.15625 28.148438 135.339844 28.90625 136.59375 30.179688 C 135.480469 29.929688 134.304688 29.167969 133.046875 27.898438 Z M 133.046875 27.898438 " stroke="none" fill-rule="nonzero" fill="rgb(32.54902%,34.117647%,39.215686%)" fill-opacity="1"/>
    <path d="M 55.527344 75.683594 C 56.042969 74.976562 57.125 74.265625 58.535156 73.902344 C 57.9375 74.726562 57.015625 75.203125 55.527344 75.683594 Z M 55.527344 75.683594 " stroke="none" fill-rule="nonzero" fill="rgb(75.294118%,76.078431%,77.647059%)" fill-opacity="1"/>
    <path d="M 62.964844 90.738281 C 63.054688 90.234375 63.386719 90.207031 64.210938 90.089844 C 65.855469 90.859375 67.007812 91.71875 68.210938 93.089844 C 66.578125 92.808594 64.890625 92.011719 62.964844 90.738281 Z M 62.964844 90.738281 " stroke="none" fill-rule="nonzero" fill="rgb(40.392157%,42.352941%,45.490196%)" fill-opacity="1"/>
  </g>
</svg>