<?xml version="1.0" encoding="UTF-8" standalone="yes"?>
<svg version="1.2" viewBox="0 0 150 150" baseProfile="tiny-ps" xmlns="http://www.w3.org/2000/svg">
  <title>bimi-svg-tiny-12-ps</title>
  <g fill-opacity="1" fill-rule="nonzero" stroke="none">
    <path d="M1.898 129.031V1.785h150c0 5.84 0 11.738-.703 18.39-2.773-1.94-4.84-4.64-6.957-7.995-3.066-1.805-6.078-3.942-9.105-3.961-38.899-.227-77.801-.188-116.7-.086-2.98.008-5.96 1.008-9.48 2.039-.8 15.21-1.066 29.93-1.34 45.406.633 20.16 1.282 39.567 1.922 59.695-.035 5.075-.062 9.418-.848 13.766-2.765-.004-4.777-.004-6.789-.008Zm0 0" fill="#0d1522"/>
    <path d="M151.898 33.871c0 33.906 0 67.809-.644 102.574-4 2.407-7.356 3.953-10.453 4.922 1.344-4.91 3.125-9.226 3.234-13.578.055-2.262-2.844-4.578-4.508-7.39-.035-1.212.032-1.907.461-3.192.871-5.672 1.375-10.758 2.528-15.844 4.84-4.933 5.097-30.316.976-34.93-.148-.163-.586-.144-.941-.765-.051-1.297-.043-2.04.683-2.961 1.473-2.59 2.766-4.98 2.868-7.406.293-7.14.109-14.297.824-21.442 2.133.008 3.55.008 4.972.012Zm0 0" fill="#1e2732"/>
    <path d="M1.898 129.797c2.012-.762 4.024-.762 6.809-.02.777 2.84 1.113 4.98.73 7.024-1.464 7.824 1.985 11.394 11.481 10.656-.023 1.781-.027 2.969-.031 4.156H1.898v-21.816Zm0 0" fill="#0e1826"/>
    <path d="M151.898 33.156c-1.421.711-2.84.711-4.976.102-.715-1.813-.719-3.02-.84-4.766-3.203-3.406-6.285-6.277-9.812-9.547-2.575-.675-4.708-.945-6.985-1.84-.234-2.324-.32-4.02.395-5.738 5.402.473 10.004.969 14.605 1.469 2.07 2.7 4.137 5.398 6.91 8.113.703 3.844.703 7.664.703 12.207Zm0 0" fill="#18212d"/>
    <path d="M96.836 151.613c-12.7 0-25.398 0-38.984-.597-.899-1.79-.91-2.98-.028-4.203 13.625.003 26.36.042 39.07.667a374.762 374.762 0 0 0-.058 4.133Zm0 0" fill="#0f1928"/>
    <path d="M97.727 151.613c-.88-1.18-.868-2.36-.028-4.164 14.176-.61 27.528-.594 40.887.012.012 1.777.016 2.965.023 4.152H97.727Zm0 0" fill="#222b37"/>
    <path d="M139.555 151.613c-.953-1.187-.957-2.375-.52-4.465.781-1.82 1.121-2.738 1.461-4.043 0-.386.047-1.16.047-1.16 3.355-1.547 6.71-3.093 10.71-4.742.645 4.578.645 9.262.645 14.41h-12.343Zm0 0" fill="#141f2a"/>
    <path d="M37.977 151.613c-2.641 0-5.278 0-8.688-.586-.758-1.757-.738-2.933.133-4.148 6.566-.008 12.281.023 18.023.43.028.367.075 1.109.051 1.093-.02-.015-.012.024-.758.012-3.418 1.059-6.09 2.129-8.761 3.2Zm0 0" fill="#363d49"/>
    <path d="M56.93 146.84c.011 1.195.023 2.387.03 4.176-3.874.597-7.753.597-12.148.222.547-1.187 1.61-2 2.672-2.812 0 0-.007-.04.555-.07 1.434-.528 2.305-1.02 3.887-1.547 2.144-.008 3.574.011 5.004.03Zm0 0" fill="#1b2533"/>
    <path d="M28.57 146.922c-.02 1.172-.039 2.348-.074 4.105-2.039.586-4.066.586-6.851.586-.754-1.187-.75-2.375.035-4.187 2.82-.582 4.855-.543 6.89-.504Zm0 0" fill="#1f2635"/>
    <path d="M46.738 148.414c-.316.824-1.379 1.637-2.754 2.824-1.738.375-3.16.375-5.297.375 1.961-1.07 4.633-2.14 8.051-3.199Zm0 0" fill="#2a303c"/>
    <path d="M29.422 146.879c-2.887.004-4.922-.035-7.719-.047-10.281 1.363-13.73-2.207-12.265-10.031.382-2.043.046-4.184.023-7.02.012-5.09.039-9.433.504-14.515.437-.73 1.305-.73 1.336-.133 1.234 3.86 2.437 7.12 3.597 11.105-.054 3.996-.07 7.27-.734 10.766-5.305 6.168-2.781 8.414 5.695 8.031 2.871-.058 4.957-.16 7.786-.176 2.707 0 4.675-.086 7.41-.07 3.347.04 5.925-.02 9.164.063 3.433-.813 6.21-1.766 9.101-2.157 2.528 1.133 4.942 1.7 7.852 2.317.824.054 1.156.062 2.371.093 9.82-.015 18.758-.058 28.418-.062 3.375-.492 6.023-1.023 9.328-1.527 3.785-.258 6.914-.54 10.527-.438 2.41.145 4.329-.09 6.805.145 3.067.746 5.578 1.027 8.488 1.457.7-.356 1.012-.86 1.45-1.735.129-.367.492-1.066 1.07-.879 4.012.598 7.441 1.012 10.867 1.426-.34.918-.68 1.836-1.469 3.063-13.8.3-27.152.285-41.304.304-13.54-.004-26.274-.043-39.899-.047-2.324.008-3.754-.011-6.531-.03a93.049 93.049 0 0 0-3.879.155c-5.71-.035-11.426-.066-17.992-.058Zm0 0" fill="#010101"/>
    <path d="M11.27 114.535s-.868 0-1.301.008C8.895 95.145 8.246 75.738 8.28 55.578c2.469-.766 4.258-.777 6.301-.168 1.348 1.945 2.441 3.274 3.477 4.977-.075.898-.223 1.39-.739 2.363-.293.867-.355 1.227-.465 2.074-.02.824.008 1.153-.12 2.098-.66 4.867-1.165 9.125-2.337 13.633-.832 4.515-.996 8.777-1.18 13.726-.019 3.461-.023 6.23-.03 9.668-.645 3.977-1.282 7.281-1.918 10.586Zm0 0" fill="#090c11"/>
    <path d="M144.238 12.18c-4.554.156-9.156-.34-15.265-1.125-9.754-.621-17.996-.957-27.141-1.313-14.742-.035-28.59-.23-42.418.094-2.77.062-5.473 2.09-8.898 2.945-9.067-1.12-17.446-1.98-26.493-2.96-2.035-.094-3.402-.067-5.578-.071-3.527-.043-6.238-.059-8.949-.07l-.004-.004c2.98-.535 5.961-1.535 8.942-1.543 38.898-.102 77.8-.14 116.699.086 3.027.02 6.039 2.156 9.105 3.96Zm0 0" fill="#010101"/>
    <path d="M14.328 54.79c-1.789.01-3.578.023-6.035.03-.406-14.718-.14-29.437.66-44.648.54-.496.54-.496.547.254.004 5.191-.422 9.672.152 14.058.356 2.7 2.243 5.254 3.403 8.258-.04.383-.09 1.156-.512 1.524-.16 2.254.098 4.136.418 6.687.496 5.059.93 9.445 1.367 13.836Zm0 0" fill="#030406"/>
    <path d="M141.867 101.36c-.504 5.09-1.008 10.175-2.625 15.695-2.394-1.774-3.676-3.98-5.332-6.285-.375-.102-.781-.668-.094-1.274.207-2.101-.27-3.594-.644-5.637.121-2.402.137-4.254.777-6.734.813-3.191 1.004-5.758 1.215-8.887-.539-1.554-1.098-2.543-1.469-4.195.024-7.793-.144-14.922-.347-22.34-.075-.68-.055-1.07.683-1.945 1.028-1.406 1.399-2.324 2.274-3.16 1.152.265 1.797.445 2.656 1.058 1.328 2.035 2.441 3.633 3.55 5.23-.003.743-.011 1.485 0 2.786.02.558.012.617-.25.726-.261.11-.398.75-.398.75s.653.434.637 1.168c-.219 11.504-.426 22.274-.633 33.043Zm0 0" fill="#424854"/>
    <path d="M143.234 62.707c-1.832-1.418-2.945-3.016-4.164-5.867-.058-7.38-.007-13.5.594-19.723.621-1.68.691-3.258.781-5.379.051-1.265.078-1.984.813-2.707 2.117 0 3.527 0 4.941.004.004 1.203.008 2.41.016 4.219-.004 7.75.18 14.906-.113 22.047-.102 2.426-1.395 4.816-2.868 7.406Zm0 0" fill="#222831"/>
    <path d="M140.496 143.105c-3.426-.027-6.855-.44-10.762-1.492.094-1.402.664-2.172 1.817-3.004 1.383-1.101 2.176-2.136 3.492-3.406.375-1.66.23-3.086.121-5.195-.023-2.055-.082-3.43-.012-5.332 1.582-1.606 3.028-2.684 4.473-3.758 1.566 2.293 4.465 4.61 4.41 6.871-.11 4.352-1.89 8.668-3.234 13.578-.258.578-.305 1.352-.305 1.738Zm0 0" fill="#424854"/>
    <path d="M142.516 101.363c-.442-10.773-.235-21.543-.016-33.37.016-1.055.023-1.704.023-1.704s.008-.059.047-.062c.336.062.774.043.922.207 4.121 4.613 3.863 29.996-.976 34.93Zm0 0" fill="#161a21"/>
    <path d="M139.527 120.398c-1.347 1.594-2.793 2.672-4.898 4.02-1.363-.606-2.07-1.488-2.957-2.86.746-3.89 1.68-7.288 2.61-10.687 1.284 2.203 2.566 4.41 4.597 6.77.68.851.613 1.546.648 2.757Zm0 0" fill="#666975"/>
    <path d="M133.91 110.77c-.558 3.5-1.492 6.898-2.613 11.097-.848 1.852-1.508 2.906-2.766 3.988-1.386.094-2.18.157-3.758.215-6.078.489-11.367.98-17.148 1.04-3.324-.68-6.16-.922-9.516-1.465a58.223 58.223 0 0 1-5.359-6.625c-1.234-1.856-2.324-3.211-3.41-5.079-1.192-2.043-2.39-3.578-4.094-5.515-2.84-3.606-5.18-6.809-7.59-10.52-1.25-1.789-2.433-3.074-3.828-4.863-1.922-2.875-3.629-5.242-5.402-8.145-1.461-2.285-2.856-4.035-4.324-6.285-.649-1.742-1.227-2.984-1.813-4.804-3.043-1.59-6.23-3.582-9.07-3.274-2.016.223-3.563 3.547-5.422 6.067.742 2.53 1.59 4.484 2.437 6.597.004.16.293.371.184.778.02.656.148.91.09 1.515-.188.352-.18 1.125-.774 1.574-.71 3.504-.832 6.563-1.086 10.286-.433 9.933-.73 19.199-1.527 28.418-.824.015-1.148.082-2.3.132-6.075 1.094-11.329 2.203-17.176 3.047-2.895-1.222-5.188-2.18-7.586-3.887-.364-7.753-.625-14.757-.52-22.363.172-12.597-.027-24.597.035-36.984.09-.653-.086-.914-.039-1.79.031-1.007-.164-1.402-.21-1.796.148 0 .51-.309.636-1.094-.07-10.652-.262-20.523-.168-30.965.492-1.785.695-2.996 1.441-4.648 1.508-5.453 2.485-10.469 3.457-15.485 8.38.864 16.758 1.723 25.86 3.45a114.869 114.869 0 0 1 4.285 6.32c8.562 11.473 16.879 22.477 25.05 34.066 5.532 7.301 11.208 14.02 17 21.332 1.286 3.301 2.45 6.016 3.614 8.727l3.965-.539c-.684-5.195-1.363-10.39-1.957-16.336.105-10.559.293-20.375.05-30.18-.093-3.73-1.175-7.445-1.851-11.761.465-2.825.977-5.055 1.633-7.938.226-2.875.308-5.094.39-7.312 8.247.332 16.489.668 25.438 1.312.797 2.008.883 3.703.977 6.555.097 1.863.187 2.574.148 3.82-.047 1.266.039 1.988-.004 3.242-.055 1.239.024 1.95-.039 3.297-.027 2.348.082 4.063.047 6.403.512 3.468 1.164 6.312 1.715 9.847.148 4.742.398 8.801.605 13.336.559 1.207 1.16 1.938 1.762 2.668-.086.387-.106.777-.684 1.54-.875 8.171-1.132 15.972-1.547 24.28-.054 1.192.051 1.883-.085 2.965-.239.692-.235.989-.336 1.676-.106.39.078 1.18-.23 1.594.737 2.097 1.784 3.773 2.827 5.453-.015 1.851-.031 3.703-.62 6.46-.24 2.571.093 4.227.425 5.888 0 0 .406.566.781.668m-110.293 7.757s.153-.066 0 0Zm0 0" fill="#fefefe"/>
    <path d="M146.082 28.492c-1.297.54-2.707.54-4.922.008-2.683-2.855-4.566-5.18-6.027-7.695a10.822 10.822 0 0 0 1.582-1.457c3.082 2.867 6.164 5.738 9.367 9.144Zm0 0" fill="#1e2732"/>
    <path d="M136.27 18.945c.058.825-.333 1.242-1.797 1.852a51.247 51.247 0 0 1-5.047.121 13.85 13.85 0 0 1-.137-2.66c2.274-.258 4.406.012 6.98.687Zm0 0" fill="#222831"/>
    <path d="M47.445 147.309c.813-.422 1.657-.473 3.133-.496-.234.523-1.105 1.015-2.516 1.558-.542.047-.59-.695-.617-1.062Zm0 0" fill="#29313c"/>
    <path d="M47.621 125.816c.297-9.265.594-18.53 1.7-28.75 1.503-3.386 2.202-5.82 3.171-8.105 1.016.039 1.762-.066 2.98-.043 1.36.508 2.247.883 3.11 1.89-1.2 6.567-2.812 12.47-3.453 18.446-1.05 9.742-1.465 19.535-2.77 29.406-3.351 2.086-6.074 4.07-8.797 6.05-2.582.06-5.16.118-8.675-.425-2.914-2.203-5.871-3.527-6.625-5.469-.961-2.484-.149-5.464.246-7.73 4.422 4.36 8.347 8.621 16.027 4.496 2.559-1.73 4.469-3.41 6.403-5.633-1.094-1.742-2.208-2.937-3.317-4.133Zm0 0" fill="#72787e"/>
    <path d="M91.234 145c-8.933.047-17.87.09-27.34-.41-.128-5.55.278-10.555.68-16.227.004-2.906.016-5.136.84-7.379 4.063-.015 7.316-.027 11.027-.023.457.012 1.371.043 1.38.652.855 2.5 1.495 4.48 2.59 6.266C83.93 133.625 87.612 139.3 91.233 145Zm0 0" fill="#111a28"/>
    <path d="M19.172 103.3c.262 7.005.523 14.009.43 21.54-.692.605-1.028.683-1.915.8-1.28-.015-2.011-.07-2.746-.124-1.203-3.262-2.406-6.524-3.64-10.383.605-3.903 1.242-7.207 2.488-11.195 2.2-.668 3.79-.653 5.383-.637Zm0 0" fill="#171f2b"/>
    <path d="M91.96 145.043c-4.347-5.742-8.03-11.418-11.55-17.164-1.094-1.785-1.734-3.766-1.937-6.18 3.011 2.133 5.23 4.899 7.785 7.422 2.781 2.746 5.87 5.266 9.293 8.195 2.004 2.27 3.543 4.22 5.082 6.172-2.649.532-5.297 1.063-8.672 1.555Zm0 0" fill="#212a37"/>
    <path d="M18.234 125.605c.34-.082.676-.16 1.47-.02 2.753 1.185 5.046 2.142 7.972 3.712.629.61.484 1.289.484 1.289-.047 2.766-.86 5.746.102 8.23.754 1.942 3.71 3.266 5.855 5.371-1.797.586-3.765.672-6.668.141-3.695-6.648-6.453-12.683-9.215-18.723Zm0 0" fill="#5b6169"/>
    <path d="M17.688 125.64c3.308 6.005 6.066 12.04 9.023 18.606-1.895.629-3.98.73-6.973.25-2.25-2.96-3.586-5.336-4.925-7.715.015-3.273.03-6.547.085-10.543.778-.668 1.508-.613 2.79-.597Zm0 0" fill="#2a303c"/>
    <path d="M101.29 143.516c-2.196-1.98-3.735-3.93-5.74-6.66.41-2.086 1.286-3.391 2.653-4.313 2.309 1.293 4.133 2.203 6.34 3.3.875.477 1.277.845 1.21 1.641 1.837 1.387 4.04 2.414 6.087 3.883a66.17 66.17 0 0 1-.508 1.328c-3.129.282-6.258.563-10.043.82Zm0 0" fill="#5b636c"/>
    <path d="M64.578 129.031c-.406 5.004-.812 10.008-1.57 15.531-.68.512-1.012.504-1.813-.175-1.035-3.418-1.597-6.164-2.183-9.543.078-2.313.18-3.996.933-5.707 1.98-.055 3.305-.078 4.633-.106Zm0 0" fill="#1a2330"/>
    <path d="M59.035 135.477c.563 2.746 1.125 5.492 1.664 8.863-2.437.055-4.851-.512-7.48-1.774-.219-.695-.219-1.004.39-1.125 2.211-2.066 3.82-4.015 5.426-5.964Zm0 0" fill="#29313c"/>
    <path d="M14.164 137.004c1.988 2.156 3.324 4.531 4.79 7.453-7.571.961-10.095-1.285-4.79-7.453Zm0 0" fill="#171f2b"/>
    <path d="M130.965 138.672c-.567.77-1.137 1.539-1.809 2.758-.105.449-.469 1.148-1.129 1.718-.879.836-1.097 1.11-1.312 1.383-2.516-.281-5.028-.562-7.207-2.16.812-1.926 1.285-2.535 2.379-3.355 2.254-.727 3.894-1.243 5.863-1.418 1.309.597 2.29.855 3.258 1.105l-.043-.031Zm0 0" fill="#94989d"/>
    <path d="M44.219 144.852c2.066-2.122 4.789-4.106 8.187-5.688.649 1.066.621 1.73.594 2.399 0 0 0 .308.102.437a58.763 58.763 0 0 1-8.883 2.852Zm0 0" fill="#5b6169"/>
    <path d="M121.27 139.223c-.477.613-.95 1.222-2.313 2.683-2.812 1.082-4.73 1.317-7.14 1.172-.368-.676-.254-.973.058-2.207.195-1.266.2-1.594.965-1.898 3.324.097 5.875.172 8.43.25Zm0 0" fill="#72787e"/>
    <path d="M127.11 144.68c-.18-.422.038-.696.788-1.168.223.308-.09.812-.789 1.168Zm0 0" fill="#5b636c"/>
    <path d="M19.508 30.64c.191 9.872.383 19.743.164 29.837-.793-.008-1.172-.239-1.555-.465-1.094-1.328-2.187-2.657-3.535-4.602-.691-5.012-1.125-9.398-1.078-14.77.14-2.902-.2-4.82-.54-6.742 0 0 .052-.773.188-1.574.164-1.078.196-1.36.836-1.652 2.246-.016 3.883-.024 5.52-.031Zm0 0" fill="#2a303c"/>
    <path d="M19.54 102.7c-1.962.585-3.552.57-5.743.57-.602-2.758-.598-5.528-.094-9.391.793-5.254 1.078-9.418 1.363-13.578.504-4.254 1.008-8.512 2.274-13.438 1.164-.699 1.57-.726 1.973-.758.199 11.997.398 23.997.226 36.594Zm0 0" fill="#212733"/>
    <path d="M14.398 80.555c.383 3.906.098 8.07-.675 12.632-.32-3.855-.157-8.117.675-12.632Zm0 0" fill="#2a303c"/>
    <path d="M18.059 60.387c.441-.149.82.082 1.492.87.285.563-.078.872-.633.864-.559-.004-1.363.121-1.363.121.28-.465.43-.957.504-1.855Zm0 0" fill="#878a94"/>
    <path d="M19.574 65.715c-.664.422-1.07.45-2.078.535-.633-.273-.66-.602-.035-1.367 1.05-.403 1.45-.375 1.852-.344.175.262.351.523.261 1.176Zm0 0" fill="#2a303c"/>
    <path d="M19.535 63.926c-.625.582-1.023.554-2.027.465-.543-.414-.48-.774-.188-1.641.235-.508 1.04-.633 1.45-.625.601.398.796.793.765 1.8Zm0 0" fill="#212733"/>
    <path d="M54.59 19.238c-1.106-1.66-2.211-3.32-3.352-5.586 2.703-1.726 5.407-3.754 8.176-3.816 13.828-.324 27.676-.129 42.418-.094.816 2.242.734 4.461-.148 7.43-5.598 2.621-9.68 4.918-8.61 10.879 0 3.96-.015 7.312-.703 10.738-4 1.094-7.332 2.113-10.68 2.734a39.453 39.453 0 0 1-.058-1.8c-3.922-8.871-8.324-16.793-19.567-20.688-2.851-.168-5.164.016-7.476.203Zm0 0" fill="#0e1623"/>
    <path d="M13.379 30.684c-.031.28-.063.562-.191 1.257-1.293-2.203-3.18-4.757-3.536-7.457-.574-4.386-.148-8.867-.148-14.058 2.703-.735 5.414-.719 8.828-.008.125 4.5-.457 8.305-1.652 12.383-1.512 2.808-2.407 5.347-3.301 7.883Zm0 0" fill="#101621"/>
    <path d="M17.297 22.523c.578-3.8 1.16-7.605 1.848-12.074 1.476-.695 2.843-.722 4.878-.629-.304 5.133-1.28 10.149-3.332 15.438-1.851-.73-2.625-1.73-3.394-2.735Zm0 0" fill="#f5f7fd"/>
    <path d="M12.543 34.266c.762 1.554 1.102 3.472.898 5.707-.8-1.57-1.058-3.453-.898-5.707Zm0 0" fill="#101621"/>
    <path d="M129.441 33.77c-.109-1.715-.218-3.43.403-5.75 1.52-.622 2.312-.637 3.086-.625-.02.023.039-.004.117.503 1.258 1.27 2.433 2.032 3.64 2.774.024-.024-.035.004-.039.613.82 2.383 1.641 4.156 2.465 5.93-.05 6.125-.101 12.246-.258 19.187-.753.641-1.398.461-3.601.274-2.234.133-2.914.277-3.594.426-.25-4.059-.5-8.118-.129-13.262-.281-4.082-1.183-7.078-2.09-10.07Zm0 0" fill="#767a82"/>
    <path d="M131.3 85.559c.262-7.801.52-15.602 1.434-23.485.817 7.047.985 14.176.735 22.223-.414.918-.957 1.355-1.262 1.348a12.408 12.408 0 0 1-.906-.086Zm-.468 4.757c-.004-.296-.008-.593.512-1.32.52-.433 1.094-.422 1.77-.371 1.128.094 1.577.137 2.027.18-.188 2.562-.38 5.129-1.192 8.32-1.668-1.05-2.715-2.727-3.125-4.945.758-.715 1.028-.989.973-1.047-.277-.305-.637-.551-.965-.817Zm0 0" fill="#91929b"/>
    <path d="M133.816 109.496c-1.02-1.055-1.351-2.71-1.218-4.726.949 1.132 1.425 2.625 1.218 4.726Zm0 0" fill="#9d9fa4"/>
    <path d="M131.617 57.578c.723-.625 1.403-.77 3.13-.988.683.844.312 1.762-.716 3.168-1.254-.242-1.855-.973-2.414-2.18Zm0 0" fill="#91929b"/>
    <path d="M135.164 88.238c-.473.524-.922.48-1.953-.097-.617-1.188-.66-1.84-.7-2.489 0 0 .544-.437.77-.691.785.734 1.344 1.723 1.883 3.277Zm0 0" fill="#9d9fa4"/>
    <path d="M142.262 66.398c.261-.109.254.54.254.86 0 .324-.653-.11-.653-.11s.137-.64.399-.75Zm0 0" fill="#222831"/>
    <path d="M129.293 21.453c1.457-.512 2.777-.492 4.762-.46 2.539 2.327 4.422 4.652 6.398 7.507.07 1.254.043 1.973-.484 3.047-1.438-.055-2.38-.465-3.317-.871 0 0 .059-.028-.035-.52-1.277-1.25-2.46-2.008-3.648-2.765 0 0-.059.027-.13-.48-1.187-1.25-2.304-1.997-3.421-2.743-.086-.727-.172-1.45-.125-2.715Zm0 0" fill="#424854"/>
    <path d="M136.648 31.285c.942-.203 1.883.207 3.301.805.406 1.77.336 3.347-.285 5.027-1.375-1.676-2.195-3.449-3.016-5.832Zm0 0" fill="#535764"/>
    <path d="M129.129 125.828c.66-1.055 1.32-2.11 2.351-3.469 1.079.57 1.786 1.454 3.016 2.59.586 1.63.645 3.004.113 5.02-.964.652-1.336.664-2.312.676-1.422.015-2.234.023-3.094-.575-.055-1.82-.062-3.03-.074-4.242Zm0 0" fill="#9d9fa4"/>
    <path d="M129.25 130.676c.813-.008 1.625-.016 3.047.496 1.144 1.77 1.683 3.02 2.223 4.266-.793 1.035-1.586 2.07-2.97 3.171-.585.063-.554.086-.542-.382-.446-1.598-.903-2.727-1.504-4.465-.184-1.434-.219-2.262-.254-3.086Zm0 0" fill="#94989d"/>
    <path d="M135.043 135.203c-1.063-1.012-1.602-2.262-2.137-4.035.367-.535.739-.547 1.668-.52.7 1.47.844 2.895.469 4.555Zm0 0" fill="#767a82"/>
    <path d="M54.836 19.707c2.066-.656 4.379-.84 7.332-.117 4.7 5.89 8.598 10.98 12.902 15.805 1.73 1.94 4.348 3.312 6.563 4.945 0 0 .039.789.101 1.715 1.887 2.754 3.711 4.582 5.563 7.027.629 3.45 1.23 6.281 1.3 8.852-3.21-1.758-5.886-3.25-8.566-4.743-8.316-11.007-16.633-22.011-25.195-33.484Zm0 0" fill="#282d39"/>
    <path d="M100.754 25.61c.629 3.722 1.71 7.437 1.805 11.167.242 9.805.054 19.621-.465 30.172-.504.742-1.324.84-2.051.82-3.441-2.187-6.152-4.351-8.094-6.542 2.133-1.485 4.52-2.868 4.676-4.414 1.004-9.762 1.512-19.563 2.602-29.579.789-.695 1.156-1.16 1.527-1.625Zm0 0" fill="#313842"/>
    <path d="M129.203 130.07c.082 1.43.117 2.258-.02 4.024-.703 1.683-1.234 2.422-1.765 3.16-1.637.52-3.277 1.035-5.531 1.762-3.172.129-5.723.054-9.43-.52-2.879-.785-4.605-1.078-6.332-1.371-.305-.438-.707-.805-1.559-1.82-2.132-2.594-3.906-4.465-5.726-6.84-.102-1.176-.156-1.852-.215-2.524 2.84.246 5.676.489 9.117 1.746 4.707 2.672 8.684 4.868 13 5.586 1.016.168 3.18-4.664 4.817-7.195.793-.066 1.586-.129 2.972-.223.61 1.184.617 2.395.672 4.215Zm0 0" fill="#c0c2c6"/>
    <path d="M28.508 131.086c-.348-.5-.203-1.18-.235-1.527 5.22-1.454 10.473-2.563 16.524-3.059.824 1.809.851 3.004.785 4.715-.621 1.816-1.156 3.117-1.687 4.422-7.04 4.07-10.965-.192-15.387-4.551Zm0 0" fill="#cacbce"/>
    <path d="M91.176 61.25c2.715 2.168 5.426 4.332 8.812 7.152-.625 2.473-1.922 4.293-3.218 6.11-5.676-6.719-11.352-13.438-16.883-20.739 2.824.91 5.5 2.403 8.953 4.547 1.297 1.41 1.816 2.172 2.336 2.93Zm0 0" fill="#40474e"/>
    <path d="M124.773 126.07c-.851 2.54-3.015 7.371-4.03 7.203-4.317-.718-8.294-2.914-12.513-5.152 5.176-1.07 10.465-1.562 16.543-2.05Zm0 0" fill="#dddee2"/>
    <path d="M96.887 75.105c1.18-2.41 2.476-4.23 3.828-6.683.055-.633.875-.73 1.289-.723 1.098 5.203 1.777 10.399 2.46 15.594l-3.964.539c-1.164-2.71-2.328-5.426-3.613-8.727Zm0 0" fill="#e2e5e9"/>
    <path d="M77.727 98.414c2.34 3.203 4.68 6.406 6.668 10.344-.883.992-1.415 1.254-2.512 1.379-3.399-3.489-6.23-6.84-8.602-10.418a80.82 80.82 0 0 1 4.446-1.305Zm0 0" fill="#888c91"/>
    <path d="M62.297 74.39c.578 1.239 1.156 2.481 1.008 4.204-4.84 1.8-8.953 3.12-13.07 4.441-.848-1.95-1.696-3.902-1.743-6.5 2.692-.715 4.578-.781 7.035-.851 1.489-.48 2.41-.957 3.91-1.426 1.336.05 2.098.09 2.86.133Zm0 0" fill="#b3b3b5"/>
    <path d="M50.234 83.2a152.973 152.973 0 0 1 13.145-4.106c2.191 1.77 3.586 3.52 4.394 5.816-1.453.547-2.324.55-3.71.223-3.942-.59-7.364-.848-11.481-1.203a44.397 44.397 0 0 1-2.055-.36s-.289-.21-.293-.37Zm0 0" fill="#9da1a7"/>
    <path d="M100.707 25.016c-.324 1.058-.691 1.523-2.2 2.203-2.573.218-4.01.218-5.448.218-1.055-5.347 3.027-7.644 8.48-9.609.145 2.133-.367 4.363-.832 7.188Zm0 0" fill="#131c29"/>
    <path d="M54.96 75.684c-1.89.07-3.776.136-6.362.273 1.058-1.875 2.605-5.2 4.62-5.422 2.84-.308 6.028 1.684 9.071 3.274-.754.539-1.516.5-3.18.101-1.984.356-3.066 1.067-4.148 1.774Zm0 0" fill="#d2d2d4"/>
    <path d="M98.11 125.645c.574.968.628 1.644.078 2.886-1.043.63-1.477.692-2.536.64-2.765-2.8-4.91-5.487-6.453-8.198 1.63-.504 2.66-.98 3.696-1.457 1.566 1.945 3.132 3.89 5.214 6.129Zm0 0" fill="#96979b"/>
    <path d="M16.68 22.8c1.386.727 2.16 1.727 3.472 2.895.336 1.38.133 2.59-.359 4.375-1.922.578-3.559.586-5.805.602.285-2.524 1.18-5.063 2.692-7.871Zm0 0" fill="#212733"/>
    <path d="M64.578 85.46c.871 0 1.742-.003 3.262-.015 2.36 2.356 4.066 4.723 5.297 7.621-1.395.59-2.313.649-3.645.664-.41-.039-1.23-.12-1.281-.64-1.203-1.371-2.356-2.23-3.527-3.653-.047-1.707-.079-2.84-.106-3.976Zm0 0" fill="#8b9094"/>
    <path d="M69.902 93.77c.922-.055 1.84-.114 3.45-.196 1.87 1.258 3.054 2.543 4.304 4.332-1.258.867-2.586 1.227-4.933 1.766-1.387.137-1.75.094-2.207-.55-.262-2.18-.438-3.767-.614-5.352Zm0 0" fill="#7a7f86"/>
    <path d="M92.75 119.02c-.89.972-1.922 1.449-4.14 1.851-1.852-1.277-2.516-2.48-2.922-4.062 1.39-1.04 2.519-1.7 3.648-2.36 1.09 1.36 2.18 2.715 3.414 4.57Zm0 0" fill="#6a6e76"/>
    <path d="M89.34 113.941c-1.133 1.168-2.262 1.829-4.14 2.551-1.419-2.031-2.083-4.125-2.75-6.222.53-.258 1.062-.52 2.445-1.11 2.054 1.203 3.253 2.738 4.445 4.781Zm0 0" fill="#989ba1"/>
    <path d="M129.297 34.395c1.05 2.367 1.953 5.363 2.34 8.757-1.176-2.445-1.828-5.289-2.34-8.757Zm0 0" fill="#9d9fa4"/>
    <path d="M45.676 130.7a161.051 161.051 0 0 1-.055-4.188c.352-.66.676-.727 1.5-.742 1.61 1.242 2.723 2.437 3.168 4.218-1.984.625-3.297.668-4.613.711Zm0 0" fill="#abaeb2"/>
    <path d="M52.219 88.816c-.696 2.43-1.395 4.864-2.762 7.582-.555-2.77-.434-5.828.816-8.82 1.403.457 1.672.848 1.946 1.238Zm0 0" fill="#989ba1"/>
    <path d="M129.29 24.695c1.245.22 2.362.965 3.565 2.192-.699.496-1.492.511-2.875.5-.667-.742-.746-1.453-.69-2.692Zm0 0" fill="#535764"/>
    <path d="M52.492 88.96c-.547-.534-.816-.925-1.629-1.827-.535-.516-.543-1.29.219-1.363 1.184.023 1.605.128 2.262.57.71 1.043 1.183 1.746 1.656 2.445-.746.11-1.492.215-2.508.176Zm0 0" fill="#676c74"/>
    <path d="M132.207 85.645c.344.656.387 1.308.328 2.445-.097.484-.672.472-.953.508-.383-.649-.488-1.34-.434-2.532.153-.507.754-.43 1.059-.421Zm0 0" fill="#767a82"/>
    <path d="M53.105 86.004c-.417-.106-.84-.211-1.832-.59-.707-.527-.836-.781-.855-1.437.562-.317 1.02-.227 2.121.449.621.914.594 1.246.566 1.578Zm0 0" fill="#8b8f96"/>
    <path d="M23.695 118.496c.075-.035-.078.031 0 0Zm0 0" fill="#f5f7fd"/>
    <path d="M130.727 90.707c.433-.125.793.121 1.07.426.055.058-.215.332-.664.629-.328.125-.512-.664-.406-1.055Zm0 0" fill="#9d9fa4"/>
    <path d="M69.492 93.73c.586 1.625.762 3.211.203 5.485-11.812-.36-11.195 5.922-10.707 12.875.082 6.18.196 11.629.309 17.074a181.954 181.954 0 0 0-.285 5.68c-1.582 2.582-3.192 4.531-5.403 6.597-.582-.546-.554-1.21-.578-2.379.633-10.273 1.047-20.066 2.098-29.808.64-5.977 2.254-11.879 4.144-18.43 1.622-.601 2.536-.582 3.692-.086 1.926 1.274 3.613 2.07 5.297 2.871 0 0 .82.082 1.23.121Zm0 0" fill="#4d535c"/>
    <path d="M62.723 90.266c-.914-.024-1.828-.043-3.43-.079-1.574-.386-2.461-.761-3.82-1.269-.946-.832-1.418-1.535-2.13-2.578-.21-.668-.183-1-.113-1.824 3.47-.23 6.891.027 10.833.617.542 1.465.574 2.597.128 4.39-.804.684-1.136.711-1.468.743Zm0 0" fill="#7d828a"/>
    <path d="M45.582 131.215c1.41-.559 2.723-.602 4.688-.684-1.266 1.64-3.176 3.32-5.735 5.051-.11-1.25.426-2.55 1.047-4.367Zm0 0" fill="#989ba1"/>
    <path d="M59.023 111.355c-.523-6.218-1.14-12.5 10.762-11.546 1.188-.043 1.55 0 2.477.09 3.39 3.398 6.222 6.75 9.62 10.238 1.235 2.23 1.9 4.324 3.055 6.734 1.157 1.52 1.82 2.723 3.075 4.024 2.73 2.789 4.875 5.476 7.824 8.636 1.164 1.196 1.523 1.914 1.879 2.633-.88 1.3-1.754 2.606-2.63 4.375-2.956-2.152-6.046-4.672-8.827-7.418-2.555-2.523-4.774-5.289-7.793-8.031-.653-.086-1.567-.117-2.106-.711-1.765-3.426-2.984-6.258-4.289-9.645-1.867-2.355-3.648-4.16-5.53-6.058-3.122 2.773-5.321 4.726-7.517 6.68Zm0 0" fill="#363d49"/>
    <path d="M58.988 112.09c2.23-2.688 4.43-4.64 7.551-7.414 1.883 1.898 3.664 3.703 4.762 6.066-9.84.59-5.797 6.528-6.7 10.25-.011 2.235-.023 4.465-.027 7.371-1.324.696-2.648.719-4.629.774-.761-5.418-.875-10.867-.957-17.047Zm0 0" fill="#29313c"/>
    <path d="M65.414 120.984c.09-3.714-3.953-9.652 5.969-9.687 1.992 2.824 3.21 5.656 4.52 9.07-3.173.59-6.426.602-10.489.617Zm0 0" fill="#1a2330"/>
    <path d="M98.203 132.543c-.844-1.098-1.203-1.816-1.742-2.898.25-.422.684-.485 1.77-.61 2.43 1.805 4.203 3.676 5.953 6.082-1.848-.37-3.672-1.281-5.98-2.574Zm0 0" fill="#888e95"/>
    <path d="M105.754 137.484c2.098-.066 3.824.227 5.933.993.387.8.383 1.128.348 1.949a17.048 17.048 0 0 1-6.281-2.942Zm0 0" fill="#94989d"/>
    <path d="M127.75 137.598c.2-1.082.73-1.82 1.578-2.895.777.797 1.234 1.926 1.688 3.531-.977.22-1.957-.039-3.266-.636Zm0 0" fill="#767a82"/>
    <path d="M93.074 28.05c1.422-.613 2.86-.613 5.016-.6.047 9.8-.461 19.6-1.465 29.363-.156 1.546-2.543 2.93-4.676 4.414-1.293-.735-1.812-1.497-2.574-2.645-.848-3.219-1.45-6.05-1.43-9.477 10.18-1.199 2.848-7.375 5.098-10.394.016-3.348.031-6.7.031-10.66Zm0 0" fill="#1b252f"/>
    <path d="M81.633 39.723c-2.215-1.016-4.832-2.387-6.563-4.328-4.304-4.825-8.203-9.915-12.363-15.45 10.602 2.985 15.004 10.907 18.926 19.778Zm0 0" fill="#171e2c"/>
    <path d="M92.371 38.79c-1.578 2.94 5.754 9.116-4.457 9.698-2.469-1.851-4.293-3.68-6.16-6.039 3.285-1.547 6.617-2.566 10.617-3.66Zm0 0" fill="#121b27"/>
    <path d="M133.047 27.898c1.11.25 2.293 1.008 3.547 2.282-1.114-.25-2.29-1.012-3.547-2.282Zm0 0" fill="#535764"/>
    <path d="M55.527 75.684c.516-.707 1.598-1.418 3.008-1.782-.597.825-1.52 1.301-3.008 1.782Zm0 0" fill="#c0c2c6"/>
    <path d="M62.965 90.738c.09-.504.422-.531 1.246-.648 1.644.77 2.797 1.629 4 3-1.633-.281-3.32-1.078-5.246-2.352Zm0 0" fill="#676c74"/>
  </g>
</svg>