<svg version="1.1" id="Layer_1" xmlns="http://www.w3.org/2000/svg" xmlns:xlink="http://www.w3.org/1999/xlink" x="0px" y="0px"
	 width="100%" viewBox="0 0 79 93" enable-background="new 0 0 79 93" xml:space="preserve">
<path fill="#0D1522" opacity="1.000000" stroke="none" 
	d="
M1.000000,80.000000 
	C1.000000,53.737869 1.000000,27.475739 1.000000,1.106804 
	C27.333035,1.106804 53.666454,1.106804 80.000000,1.106804 
	C80.000000,4.728170 80.000000,8.384910 79.628967,12.509794 
	C78.168991,11.304636 77.080048,9.631331 75.966187,7.552571 
	C74.350815,6.432662 72.764565,5.107359 71.169243,5.096343 
	C50.683170,4.954889 30.195736,4.979292 9.708899,5.043063 
	C8.138226,5.047951 6.569462,5.666589 4.715913,6.305400 
	C4.293215,15.736571 4.154415,24.862291 4.009698,34.457371 
	C4.343663,46.958439 4.683544,58.990150 5.021408,71.470535 
	C5.003813,74.614372 4.988235,77.309540 4.575398,80.003372 
	C3.118760,80.001358 2.059380,80.000679 1.000000,80.000000 
z"/>
<path fill="#1E2732" opacity="1.000000" stroke="none" 
	d="
M80.000000,21.000000 
	C80.000000,42.020893 80.000000,63.041790 79.661057,84.596161 
	C77.554626,86.088654 75.787132,87.047661 74.154724,87.648460 
	C74.862793,84.604309 75.801682,81.926041 75.858360,79.229240 
	C75.887848,77.826195 74.360306,76.390419 73.483871,74.648087 
	C73.466423,73.895668 73.501198,73.464600 73.728134,72.669418 
	C74.185883,69.151466 74.451469,65.997612 75.057404,62.844696 
	C77.607254,59.786823 77.743500,44.049065 75.571579,41.189186 
	C75.493614,41.086525 75.264542,41.098621 75.076706,40.713387 
	C75.050491,39.909611 75.053467,39.449677 75.436813,38.877937 
	C76.211472,37.273407 76.893364,35.790710 76.945831,34.286068 
	C77.100204,29.859056 77.004868,25.423338 77.381378,20.993080 
	C78.503639,20.996756 79.251823,20.998377 80.000000,21.000000 
z"/>
<path fill="#0E1826" opacity="1.000000" stroke="none" 
	d="
M1.000000,80.474129 
	C2.059380,80.000679 3.118760,80.001358 4.585553,80.463097 
	C4.995479,82.223000 5.171158,83.549362 4.969797,84.815781 
	C4.198270,89.668152 6.015992,91.880379 11.017147,91.422348 
	C11.003949,92.526955 11.001975,93.263474 11.000000,94.000000 
	C7.730249,94.000000 4.460499,94.000000 1.000000,94.000000 
	C1.000000,89.650574 1.000000,85.299416 1.000000,80.474129 
z"/>
<path fill="#18212D" opacity="1.000000" stroke="none" 
	d="
M80.000000,20.555836 
	C79.251823,20.998377 78.503639,20.996756 77.379700,20.619511 
	C77.002022,19.496233 77.000107,18.748573 76.935738,17.666119 
	C75.249878,15.552666 73.626472,13.774010 71.769295,11.745436 
	C70.412300,11.328048 69.289078,11.160579 68.090111,10.605021 
	C67.967537,9.165385 67.920715,8.113839 68.296967,7.046939 
	C71.143730,7.340399 73.567421,7.649214 75.991104,7.958028 
	C77.080048,9.631331 78.168991,11.304636 79.628967,12.988970 
	C80.000000,15.370558 80.000000,17.741116 80.000000,20.555836 
z"/>
<path fill="#0F1928" opacity="1.000000" stroke="none" 
	d="
M51.000000,94.000000 
	C44.312355,94.000000 37.624710,94.000000 30.468754,93.630020 
	C29.994637,92.520348 29.988832,91.780655 30.453068,91.022545 
	C37.629650,91.027054 44.336197,91.049980 51.031502,91.438690 
	C51.013512,92.536308 51.006756,93.268150 51.000000,94.000000 
z"/>
<path fill="#222B37" opacity="1.000000" stroke="none" 
	d="
M51.468578,94.000000 
	C51.006756,93.268150 51.013512,92.536308 51.455276,91.419281 
	C58.921230,91.041687 65.952164,91.049278 72.988052,91.424736 
	C72.995331,92.528404 72.997665,93.264198 73.000000,94.000000 
	C65.979050,94.000000 58.958103,94.000000 51.468578,94.000000 
z"/>
<path fill="#141F2A" opacity="1.000000" stroke="none" 
	d="
M73.497902,94.000000 
	C72.997665,93.264198 72.995331,92.528404 73.225159,91.232910 
	C73.636536,90.104233 73.815758,89.535240 73.994766,88.726196 
	C73.994553,88.486130 74.019630,88.006660 74.019630,88.006660 
	C75.787132,87.047661 77.554626,86.088654 79.661057,85.064819 
	C80.000000,87.904037 80.000000,90.808075 80.000000,94.000000 
	C78.002823,94.000000 75.999313,94.000000 73.497902,94.000000 
z"/>
<path fill="#363D49" opacity="1.000000" stroke="none" 
	d="
M20.000000,94.000000 
	C18.611002,94.000000 17.222006,94.000000 15.424635,93.636475 
	C15.026535,92.546074 15.036809,91.819199 15.495739,91.064758 
	C18.953602,91.058914 21.962805,91.080635 24.986889,91.331207 
	C25.001770,91.560051 25.026735,92.018036 25.015604,92.009140 
	C25.004473,92.000252 25.008499,92.024002 24.615410,92.016701 
	C22.814882,92.672935 21.407442,93.336464 20.000000,94.000000 
z"/>
<path fill="#1B2533" opacity="1.000000" stroke="none" 
	d="
M29.983028,91.040970 
	C29.988832,91.780655 29.994637,92.520348 30.000221,93.630020 
	C27.957682,94.000000 25.915365,94.000000 23.601189,93.767235 
	C23.889057,93.030983 24.448780,92.527496 25.008501,92.024002 
	C25.008499,92.024002 25.004473,92.000252 25.301498,91.980392 
	C26.056423,91.653847 26.514320,91.347153 27.348471,91.022240 
	C28.477491,91.016335 29.230261,91.028656 29.983028,91.040970 
z"/>
<path fill="#1F2635" opacity="1.000000" stroke="none" 
	d="
M15.047083,91.092316 
	C15.036809,91.819199 15.026535,92.546074 15.008131,93.636475 
	C13.933482,94.000000 12.866963,94.000000 11.400223,94.000000 
	C11.001975,93.263474 11.003949,92.526955 11.418062,91.404274 
	C12.902494,91.042854 13.974789,91.067581 15.047083,91.092316 
z"/>
<path fill="#2A303C" opacity="1.000000" stroke="none" 
	d="
M24.615414,92.016708 
	C24.448780,92.527496 23.889057,93.030983 23.164665,93.767235 
	C22.250000,94.000000 21.500000,94.000000 20.375000,94.000000 
	C21.407442,93.336464 22.814882,92.672935 24.615414,92.016708 
z"/>
<path fill="#010101" opacity="1.000000" stroke="none" 
	d="
M15.495740,91.064758 
	C13.974789,91.067581 12.902494,91.042854 11.429285,91.036194 
	C6.015992,91.880379 4.198270,89.668152 4.969797,84.815781 
	C5.171158,83.549362 4.995479,82.223000 4.982812,80.464432 
	C4.988235,77.309540 5.003813,74.614372 5.249041,71.465500 
	C5.478690,71.011795 5.934600,71.011292 5.951582,71.382652 
	C6.601971,73.776085 7.235378,75.798157 7.846771,78.267097 
	C7.816757,80.744286 7.808757,82.774597 7.460554,84.941711 
	C4.666958,88.767570 5.995855,90.159645 10.460110,89.922470 
	C11.971698,89.884567 13.070560,89.822456 14.558935,89.811844 
	C15.985073,89.811981 17.021700,89.760612 18.462444,89.770020 
	C20.225241,89.794327 21.583921,89.757866 23.289328,89.808716 
	C25.097467,89.304115 26.558878,88.712189 28.081656,88.471344 
	C29.413986,89.173889 30.684954,89.525352 32.216316,89.907104 
	C32.651417,89.941948 32.826122,89.946510 33.466942,89.966339 
	C38.638912,89.954803 43.344772,89.928001 48.433243,89.925842 
	C50.210365,89.621346 51.604877,89.292229 53.344658,88.979355 
	C55.338318,88.820801 56.986713,88.645996 58.890957,88.707321 
	C60.158306,88.798538 61.169804,88.653633 62.472900,88.797485 
	C64.088280,89.260361 65.412056,89.434471 66.943275,89.702553 
	C67.313545,89.482155 67.476372,89.167786 67.706909,88.626465 
	C67.774620,88.399513 67.965744,87.966110 68.271912,88.079979 
	C70.383713,88.451317 72.189346,88.708786 73.994987,88.966255 
	C73.815758,89.535240 73.636536,90.104233 73.220207,90.865044 
	C65.952164,91.049278 58.921230,91.041687 51.466515,91.053505 
	C44.336197,91.049980 37.629650,91.027054 30.453068,91.022552 
	C29.230261,91.028656 28.477491,91.016335 27.014938,91.004837 
	C25.860771,91.037895 25.416389,91.070129 24.972010,91.102356 
	C21.962805,91.080635 18.953602,91.058914 15.495740,91.064758 
z"/>
<path fill="#090C11" opacity="1.000000" stroke="none" 
	d="
M5.934601,71.011292 
	C5.934600,71.011292 5.478690,71.011795 5.251058,71.016830 
	C4.683544,58.990150 4.343663,46.958439 4.362227,34.457779 
	C5.662182,33.982582 6.603691,33.976330 7.678877,34.353104 
	C8.388895,35.559658 8.965236,36.383194 9.510029,37.440727 
	C9.471597,37.997631 9.394138,38.302635 9.122749,38.906036 
	C8.967111,39.443466 8.934829,39.664597 8.878143,40.191902 
	C8.867602,40.702377 8.881465,40.906673 8.813248,41.490986 
	C8.465550,44.509548 8.199936,47.148090 7.583596,49.944759 
	C7.145710,52.744328 7.058549,55.385773 6.961233,58.455139 
	C6.950689,60.600109 6.950300,62.317162 6.945228,64.449165 
	C6.605229,66.913177 6.269915,68.962234 5.934601,71.011292 
z"/>
<path fill="#010101" opacity="1.000000" stroke="none" 
	d="
M75.966187,7.552572 
	C73.567421,7.649214 71.143730,7.340399 67.925049,6.853738 
	C62.788597,6.468641 58.447155,6.261391 53.630875,6.039824 
	C45.867107,6.017897 38.575108,5.898023 31.291840,6.097300 
	C29.833433,6.137203 28.408291,7.393006 26.605484,7.925577 
	C21.830050,7.229393 17.416946,6.695805 12.651806,6.088012 
	C11.580456,6.031057 10.861143,6.048307 9.713717,6.045417 
	C7.857342,6.017280 6.429079,6.009282 5.000417,6.000638 
	C5.000019,5.999992 4.999811,5.999949 4.999811,5.999949 
	C6.569462,5.666589 8.138226,5.047951 9.708899,5.043063 
	C30.195736,4.979292 50.683170,4.954889 71.169243,5.096343 
	C72.764565,5.107359 74.350815,6.432662 75.966187,7.552572 
z"/>
<path fill="#030406" opacity="1.000000" stroke="none" 
	d="
M7.545200,33.970078 
	C6.603691,33.976330 5.662182,33.982582 4.368144,33.988419 
	C4.154415,24.862291 4.293215,15.736571 4.715913,6.305400 
	C4.999811,5.999949 5.000019,5.999992 5.004177,6.464456 
	C5.006231,9.682197 4.781319,12.460298 5.084264,15.179591 
	C5.270714,16.853197 6.263445,18.436979 6.874842,20.299879 
	C6.855528,20.538666 6.827279,21.016962 6.606935,21.245560 
	C6.522123,22.642279 6.657656,23.810402 6.825692,25.391315 
	C7.087197,28.526098 7.316199,31.248089 7.545200,33.970078 
z"/>
<path fill="#424854" opacity="1.000000" stroke="none" 
	d="
M74.717056,62.843754 
	C74.451469,65.997612 74.185883,69.151466 73.334808,72.572937 
	C72.073410,71.473625 71.397499,70.106705 70.525467,68.677261 
	C70.329338,68.614738 70.115326,68.263039 70.476921,67.886490 
	C70.586235,66.584587 70.333961,65.659225 70.137238,64.391655 
	C70.201218,62.902340 70.209633,61.755230 70.546982,60.218014 
	C70.975517,58.237991 71.075119,56.648075 71.186050,54.708611 
	C70.902885,53.745010 70.608383,53.130962 70.413521,52.105927 
	C70.425171,47.275249 70.337181,42.855564 70.229721,38.255951 
	C70.189980,37.833694 70.201653,37.592922 70.590698,37.049732 
	C71.130760,36.176765 71.325386,35.607765 71.787292,35.091293 
	C72.393837,35.255161 72.733101,35.366501 73.186523,35.747948 
	C73.885933,37.008621 74.471184,37.999184 75.056442,38.989746 
	C75.053467,39.449677 75.050491,39.909611 75.056931,40.716316 
	C75.066353,41.063087 75.061859,41.098320 74.924614,41.166210 
	C74.787369,41.234100 74.713921,41.632160 74.713921,41.632160 
	C74.713921,41.632160 75.057678,41.900631 75.050293,42.355995 
	C74.934288,49.488827 74.825676,56.166290 74.717056,62.843754 
z"/>
<path fill="#222831" opacity="1.000000" stroke="none" 
	d="
M75.436813,38.877937 
	C74.471184,37.999184 73.885933,37.008621 73.243896,35.240501 
	C73.213272,30.666254 73.239433,26.869562 73.556412,23.011913 
	C73.883804,21.971663 73.920380,20.992365 73.968048,19.677370 
	C73.993752,18.894079 74.008369,18.446487 74.394913,17.999243 
	C75.510620,18.000034 76.254402,18.000475 76.998192,18.000916 
	C77.000107,18.748573 77.002022,19.496233 77.005615,20.617460 
	C77.004868,25.423338 77.100204,29.859056 76.945831,34.286068 
	C76.893364,35.790710 76.211472,37.273407 75.436813,38.877937 
z"/>
<path fill="#424854" opacity="1.000000" stroke="none" 
	d="
M73.994766,88.726196 
	C72.189346,88.708786 70.383713,88.451317 68.327438,87.800674 
	C68.376297,86.930763 68.675789,86.454041 69.284103,85.937004 
	C70.010712,85.255211 70.428490,84.613724 71.121689,83.826675 
	C71.321007,82.796494 71.244919,81.911880 71.187263,80.605118 
	C71.174141,79.330948 71.142593,78.478928 71.181190,77.297958 
	C72.012924,76.302490 72.774506,75.635963 73.536087,74.969437 
	C74.360306,76.390419 75.887848,77.826195 75.858360,79.229240 
	C75.801682,81.926041 74.862793,84.604309 74.154724,87.648460 
	C74.019630,88.006660 73.994553,88.486130 73.994766,88.726196 
z"/>
<path fill="#161A21" opacity="1.000000" stroke="none" 
	d="
M75.057404,62.844696 
	C74.825676,56.166290 74.934288,49.488827 75.050545,42.155869 
	C75.058189,41.500374 75.061859,41.098320 75.061859,41.098320 
	C75.061859,41.098320 75.066353,41.063087 75.086121,41.060162 
	C75.264542,41.098621 75.493614,41.086525 75.571579,41.189186 
	C77.743500,44.049065 77.607254,59.786823 75.057404,62.844696 
z"/>
<path fill="#666975" opacity="1.000000" stroke="none" 
	d="
M73.483871,74.648094 
	C72.774506,75.635963 72.012924,76.302490 70.904694,77.139343 
	C70.186531,76.763321 69.815010,76.216980 69.346703,75.366241 
	C69.740479,72.954491 70.231041,70.847130 70.721596,68.739777 
	C71.397499,70.106705 72.073410,71.473625 73.142639,72.937042 
	C73.501198,73.464600 73.466423,73.895668 73.483871,74.648094 
z"/>
<path fill="#FEFEFE" opacity="1.000000" stroke="none" 
	d="
M70.525467,68.677261 
	C70.231041,70.847130 69.740479,72.954491 69.150345,75.557854 
	C68.703293,76.706665 68.355812,77.359474 67.694122,78.029800 
	C66.962334,78.087448 66.544739,78.127571 65.713158,78.164032 
	C62.512722,78.465759 59.726276,78.771156 56.683388,78.807281 
	C54.932278,78.386711 53.437618,78.235413 51.671295,77.900566 
	C50.574303,76.511131 49.748970,75.305252 48.848324,73.791504 
	C48.198460,72.642303 47.623909,71.800964 47.052376,70.644264 
	C46.423817,69.377129 45.792248,68.425354 44.897095,67.224380 
	C43.400810,64.989006 42.168114,63.002846 40.899124,60.702103 
	C40.240166,59.592262 39.617504,58.797005 38.882278,57.686111 
	C37.870922,55.903286 36.972137,54.436100 36.038025,52.636299 
	C35.267738,51.219131 34.532776,50.134571 33.759880,48.740059 
	C33.418175,47.660439 33.114407,46.890766 32.806305,45.760254 
	C31.202076,44.774731 29.523392,43.539295 28.028963,43.732090 
	C26.966640,43.869137 26.152672,45.931286 25.173176,47.492760 
	C25.564571,49.061832 26.010654,50.272388 26.457428,51.583183 
	C26.458118,51.683430 26.610620,51.813580 26.553791,52.064453 
	C26.564505,52.472424 26.632048,52.629520 26.600502,53.005219 
	C26.501415,53.223827 26.506119,53.703831 26.194004,53.980789 
	C25.818531,56.153355 25.755171,58.048962 25.620832,60.357910 
	C25.393188,66.516266 25.236523,72.261276 24.817261,77.976166 
	C24.383347,77.986626 24.212029,78.027214 23.605865,78.058662 
	C20.405422,78.737465 17.639826,79.425407 14.558615,79.949066 
	C13.034745,79.190407 11.826488,78.596039 10.564203,77.538246 
	C10.372417,72.731659 10.234662,68.388504 10.291166,63.673157 
	C10.380779,55.862419 10.276132,48.423866 10.309853,40.742516 
	C10.355923,40.337894 10.263624,40.176067 10.288643,39.634544 
	C10.304201,39.010239 10.202441,38.765625 10.178001,38.520332 
	C10.255323,38.519661 10.447334,38.328640 10.512201,37.842472 
	C10.475911,31.236656 10.374753,25.117006 10.423845,18.644119 
	C10.682567,17.537941 10.791038,16.785002 11.182678,15.761621 
	C11.978513,12.381525 12.491178,9.271872 13.003841,6.162217 
	C17.416946,6.695805 21.830050,7.229393 26.623901,8.300858 
	C27.586433,9.868140 28.168215,10.897548 28.879742,12.217318 
	C33.389740,19.331051 37.769997,26.154423 42.073967,33.338650 
	C44.986813,37.865604 47.975945,42.031704 51.027164,46.565041 
	C51.702934,48.613083 52.316616,50.293888 52.930298,51.974693 
	C53.626129,51.863377 54.321960,51.752056 55.017792,51.640736 
	C54.658894,48.420055 54.299995,45.199379 53.987694,41.513428 
	C54.042812,34.966026 54.141663,28.881998 54.013783,22.802738 
	C53.965107,20.489084 53.395676,18.186388 53.039665,15.508778 
	C53.284878,13.757580 53.554005,12.376301 53.899193,10.588410 
	C54.018738,8.805912 54.062222,7.430027 54.105709,6.054141 
	C58.447155,6.261391 62.788597,6.468641 67.501968,6.869092 
	C67.920715,8.113839 67.967537,9.165385 68.016708,10.931445 
	C68.067261,12.086775 68.115471,12.527590 68.094223,13.301929 
	C68.070068,14.085114 68.115372,14.534776 68.091507,15.310812 
	C68.063240,16.078419 68.104134,16.519650 68.072296,17.354340 
	C68.057350,18.810934 68.115143,19.874063 68.096390,21.323576 
	C68.364899,23.474461 68.709938,25.238962 68.999573,27.429642 
	C69.076759,30.371161 69.209351,32.886501 69.318466,35.697914 
	C69.611748,36.447220 69.928505,36.900459 70.245255,37.353699 
	C70.201653,37.592922 70.189980,37.833694 69.886475,38.307178 
	C69.425819,43.374035 69.288925,48.209728 69.070648,53.360008 
	C69.043495,54.101028 69.097725,54.527466 69.025803,55.198990 
	C68.901154,55.627842 68.902672,55.811604 68.848724,56.237995 
	C68.793251,56.480621 68.890373,56.968826 68.728088,57.226967 
	C69.116554,58.526115 69.667305,59.567120 70.218048,60.608124 
	C70.209633,61.755230 70.201218,62.902340 69.890869,64.613747 
	C69.764412,66.206375 69.939873,67.234711 70.115326,68.263039 
	C70.115326,68.263039 70.329338,68.614738 70.525467,68.677261 
M12.439302,73.487770 
	C12.439302,73.487770 12.519348,73.445770 12.439302,73.487770 
z"/>
<path fill="#1E2732" opacity="1.000000" stroke="none" 
	d="
M76.935738,17.666119 
	C76.254402,18.000475 75.510620,18.000034 74.343994,17.670378 
	C72.930656,15.900455 71.940163,14.459745 71.169510,12.898226 
	C71.593925,12.516729 71.798492,12.256042 72.003067,11.995355 
	C73.626472,13.774010 75.249878,15.552666 76.935738,17.666119 
z"/>
<path fill="#222831" opacity="1.000000" stroke="none" 
	d="
M71.769295,11.745436 
	C71.798492,12.256042 71.593925,12.516729 70.822113,12.894293 
	C69.557808,12.996914 68.860748,12.982659 68.163689,12.968405 
	C68.115471,12.527590 68.067261,12.086775 68.092453,11.319535 
	C69.289078,11.160579 70.412300,11.328048 71.769295,11.745436 
z"/>
<path fill="#29313C" opacity="1.000000" stroke="none" 
	d="
M24.986889,91.331207 
	C25.416389,91.070129 25.860771,91.037895 26.638683,91.023071 
	C26.514320,91.347153 26.056423,91.653847 25.312630,91.989288 
	C25.026735,92.018036 25.001770,91.560051 24.986889,91.331207 
z"/>
<path fill="#72787E" opacity="1.000000" stroke="none" 
	d="
M25.079857,78.006294 
	C25.236523,72.261276 25.393188,66.516266 25.975512,60.180168 
	C26.768337,58.081406 27.135508,56.573719 27.645538,55.155991 
	C28.180979,55.179905 28.573557,55.113861 29.216282,55.129971 
	C29.932413,55.444290 30.398394,55.676456 30.853485,56.301132 
	C30.222372,60.373417 29.372547,64.032219 29.034004,67.737724 
	C28.482124,73.778313 28.264015,79.849396 27.575348,85.970467 
	C25.811287,87.262680 24.376944,88.492035 22.942600,89.721397 
	C21.583921,89.757866 20.225241,89.794327 18.372974,89.456024 
	C16.837990,88.090454 15.280662,87.269539 14.884442,86.066292 
	C14.377423,84.526566 14.806025,82.678741 15.013842,81.272156 
	C17.342573,83.975342 19.410448,86.617279 23.455994,84.061752 
	C24.802114,82.987457 25.809595,81.945724 26.826931,80.567490 
	C26.251143,79.489418 25.665501,78.747856 25.079857,78.006294 
z"/>
<path fill="#111A28" opacity="1.000000" stroke="none" 
	d="
M48.050632,89.901207 
	C43.344772,89.928001 38.638912,89.954803 33.650948,89.644760 
	C33.583012,86.205193 33.797176,83.102463 34.008461,79.584389 
	C34.011639,77.784554 34.017704,76.400055 34.450630,75.011490 
	C36.591568,75.000885 38.305641,74.994354 40.260147,74.995026 
	C40.500572,75.002235 40.981209,75.022514 40.984837,75.400116 
	C41.435200,76.950180 41.773476,78.179054 42.348656,79.284698 
	C44.202335,82.847977 46.143311,86.365837 48.050632,89.901207 
z"/>
<path fill="#171F2B" opacity="1.000000" stroke="none" 
	d="
M10.096906,64.045341 
	C10.234662,68.388504 10.372417,72.731659 10.323885,77.400055 
	C9.959624,77.775307 9.781653,77.825310 9.315450,77.897476 
	C8.641073,77.886497 8.254930,77.853363 7.868786,77.820229 
	C7.235378,75.798157 6.601971,73.776085 5.951582,71.382652 
	C6.269915,68.962234 6.605229,66.913177 7.261366,64.441460 
	C8.420427,64.027641 9.258667,64.036491 10.096906,64.045341 
z"/>
<path fill="#212A37" opacity="1.000000" stroke="none" 
	d="
M48.433243,89.925842 
	C46.143311,86.365837 44.202335,82.847977 42.348656,79.284698 
	C41.773476,78.179054 41.435200,76.950180 41.328423,75.452713 
	C42.914875,76.775841 44.083813,78.490692 45.428791,80.054100 
	C46.893536,81.756737 48.521637,83.318840 50.323181,85.137131 
	C51.378357,86.542404 52.188873,87.752754 52.999390,88.963104 
	C51.604877,89.292229 50.210365,89.621346 48.433243,89.925842 
z"/>
<path fill="#5B6169" opacity="1.000000" stroke="none" 
	d="
M9.603683,77.875320 
	C9.781653,77.825310 9.959624,77.775307 10.377913,77.863480 
	C11.826488,78.596039 13.034745,79.190407 14.575436,80.163040 
	C14.907868,80.541290 14.831439,80.963692 14.831440,80.963692 
	C14.806025,82.678741 14.377423,84.526566 14.884442,86.066292 
	C15.280662,87.269539 16.837990,88.090454 17.968857,89.395248 
	C17.021700,89.760612 15.985073,89.811981 14.456409,89.484589 
	C12.510809,85.362328 11.057246,81.618820 9.603683,77.875320 
z"/>
<path fill="#2A303C" opacity="1.000000" stroke="none" 
	d="
M9.315451,77.897476 
	C11.057246,81.618820 12.510809,85.362328 14.066898,89.433090 
	C13.070560,89.822456 11.971698,89.884567 10.394470,89.586647 
	C9.210990,87.752716 8.505873,86.278816 7.800756,84.804916 
	C7.808757,82.774597 7.816757,80.744286 7.846772,78.267097 
	C8.254930,77.853363 8.641073,77.886497 9.315451,77.897476 
z"/>
<path fill="#5B636C" opacity="1.000000" stroke="none" 
	d="
M53.344658,88.979355 
	C52.188873,87.752754 51.378357,86.542404 50.322670,84.849182 
	C50.539295,83.557838 51.001091,82.749367 51.719582,82.177582 
	C52.936321,82.978401 53.896366,83.542542 55.058464,84.223137 
	C55.520695,84.519440 55.731369,84.745422 55.697857,85.240356 
	C56.664238,86.099525 57.825310,86.735901 58.901764,87.648026 
	C58.756462,88.106255 58.695786,88.288719 58.635105,88.471191 
	C56.986713,88.645996 55.338318,88.820801 53.344658,88.979355 
z"/>
<path fill="#1A2330" opacity="1.000000" stroke="none" 
	d="
M34.011345,79.999741 
	C33.797176,83.102463 33.583012,86.205193 33.184837,89.629501 
	C32.826122,89.946510 32.651417,89.941948 32.228760,89.520515 
	C31.684328,87.400841 31.387854,85.698021 31.078621,83.603546 
	C31.120245,82.168747 31.174622,81.125626 31.572067,80.064590 
	C32.613873,80.031036 33.312611,80.015388 34.011345,79.999741 
z"/>
<path fill="#29313C" opacity="1.000000" stroke="none" 
	d="
M31.091377,83.995209 
	C31.387854,85.698021 31.684328,87.400841 31.968361,89.490234 
	C30.684954,89.525352 29.413986,89.173889 28.028095,88.391273 
	C27.913172,87.960129 27.913944,87.767967 28.233528,87.694504 
	C29.399199,86.412430 30.245287,85.203819 31.091377,83.995209 
z"/>
<path fill="#171F2B" opacity="1.000000" stroke="none" 
	d="
M7.460553,84.941711 
	C8.505873,86.278816 9.210990,87.752716 9.981746,89.562439 
	C5.995855,90.159645 4.666958,88.767570 7.460553,84.941711 
z"/>
<path fill="#94989D" opacity="1.000000" stroke="none" 
	d="
M68.975281,85.977310 
	C68.675789,86.454041 68.376297,86.930763 68.021271,87.686798 
	C67.965744,87.966110 67.774620,88.399513 67.427399,88.751053 
	C66.965393,89.271248 66.850616,89.439919 66.735832,89.608589 
	C65.412056,89.434471 64.088280,89.260361 62.941803,88.271133 
	C63.368843,87.076935 63.618584,86.697838 64.193504,86.189285 
	C65.381279,85.739304 66.243874,85.418777 67.281219,85.309921 
	C67.971252,85.681694 68.486549,85.841782 68.996536,85.996765 
	C68.991234,85.991669 68.975281,85.977310 68.975281,85.977310 
z"/>
<path fill="#5B6169" opacity="1.000000" stroke="none" 
	d="
M23.289328,89.808716 
	C24.376944,88.492035 25.811287,87.262680 27.600525,86.282059 
	C27.941595,86.943192 27.927771,87.355583 27.913944,87.767967 
	C27.913944,87.767967 27.913172,87.960129 27.966732,88.040192 
	C26.558878,88.712189 25.097467,89.304115 23.289328,89.808716 
z"/>
<path fill="#72787E" opacity="1.000000" stroke="none" 
	d="
M63.868328,86.318741 
	C63.618584,86.697838 63.368843,87.076935 62.650200,87.982376 
	C61.169804,88.653633 60.158306,88.798538 58.890957,88.707321 
	C58.695786,88.288719 58.756462,88.106255 58.920803,87.340927 
	C59.024601,86.555313 59.024731,86.352554 59.429760,86.162262 
	C61.179214,86.222733 62.523773,86.270737 63.868328,86.318741 
z"/>
<path fill="#5B636C" opacity="1.000000" stroke="none" 
	d="
M66.943275,89.702553 
	C66.850616,89.439919 66.965393,89.271248 67.359695,88.978004 
	C67.476372,89.167786 67.313545,89.482155 66.943275,89.702553 
z"/>
<path fill="#2A303C" opacity="1.000000" stroke="none" 
	d="
M10.273596,18.997358 
	C10.374753,25.117006 10.475911,31.236656 10.361059,37.494415 
	C9.943893,37.490597 9.742736,37.348663 9.541577,37.206726 
	C8.965236,36.383194 8.388895,35.559658 7.678877,34.353104 
	C7.316199,31.248089 7.087197,28.526098 7.111781,25.196712 
	C7.186003,23.398533 7.006641,22.207747 6.827279,21.016962 
	C6.827279,21.016962 6.855528,20.538666 6.926659,20.042196 
	C7.013693,19.371719 7.029597,19.197710 7.367069,19.017103 
	C8.550289,19.006124 9.411942,19.001741 10.273596,18.997358 
z"/>
<path fill="#212733" opacity="1.000000" stroke="none" 
	d="
M10.291166,63.673157 
	C9.258667,64.036491 8.420427,64.027641 7.266050,64.026505 
	C6.950300,62.317162 6.950689,60.600109 7.217345,58.204765 
	C7.633849,54.946526 7.784085,52.366577 7.934321,49.786633 
	C8.199936,47.148090 8.465550,44.509548 9.132465,41.456154 
	C9.746338,41.022636 9.958912,41.003975 10.171485,40.985310 
	C10.276132,48.423866 10.380779,55.862419 10.291166,63.673157 
z"/>
<path fill="#2A303C" opacity="1.000000" stroke="none" 
	d="
M7.583596,49.944759 
	C7.784085,52.366577 7.633849,54.946526 7.227500,57.776840 
	C7.058549,55.385773 7.145710,52.744328 7.583596,49.944759 
z"/>
<path fill="#878A94" opacity="1.000000" stroke="none" 
	d="
M9.510029,37.440727 
	C9.742736,37.348663 9.943893,37.490597 10.296192,37.980583 
	C10.447334,38.328640 10.255323,38.519661 9.962608,38.515915 
	C9.669894,38.512169 9.246106,38.589737 9.246106,38.589737 
	C9.394138,38.302635 9.471597,37.997631 9.510029,37.440727 
z"/>
<path fill="#2A303C" opacity="1.000000" stroke="none" 
	d="
M10.309853,40.742516 
	C9.958912,41.003975 9.746338,41.022636 9.214546,41.076134 
	C8.881465,40.906673 8.867602,40.702377 9.195407,40.227989 
	C9.748493,39.976681 9.959910,39.995461 10.171327,40.014236 
	C10.263624,40.176067 10.355923,40.337894 10.309853,40.742516 
z"/>
<path fill="#212733" opacity="1.000000" stroke="none" 
	d="
M10.288643,39.634544 
	C9.959910,39.995461 9.748493,39.976681 9.219811,39.921814 
	C8.934829,39.664597 8.967111,39.443466 9.122749,38.906036 
	C9.246106,38.589737 9.669894,38.512169 9.885287,38.516586 
	C10.202441,38.765625 10.304201,39.010239 10.288643,39.634544 
z"/>
<path fill="#0E1623" opacity="1.000000" stroke="none" 
	d="
M28.749996,11.926956 
	C28.168215,10.897548 27.586433,9.868140 26.986231,8.463452 
	C28.408291,7.393006 29.833433,6.137203 31.291840,6.097300 
	C38.575108,5.898023 45.867107,6.017897 53.630875,6.039824 
	C54.062222,7.430027 54.018738,8.805912 53.554073,10.646742 
	C50.605801,12.272500 48.454914,13.696131 49.019287,17.390926 
	C49.018955,19.847746 49.010860,21.924841 48.649189,24.048496 
	C46.541748,24.726675 44.787884,25.358294 43.024242,25.744843 
	C43.014469,25.499771 42.992596,25.009727 42.993813,24.627794 
	C40.928120,19.127157 38.608864,14.215390 32.688725,11.802708 
	C31.186781,11.696538 29.968390,11.811748 28.749996,11.926956 
z"/>
<path fill="#101621" opacity="1.000000" stroke="none" 
	d="
M7.045502,19.023699 
	C7.029597,19.197710 7.013693,19.371719 6.945972,19.803410 
	C6.263445,18.436979 5.270714,16.853197 5.084264,15.179591 
	C4.781319,12.460298 5.006231,9.682197 5.004575,6.465101 
	C6.429079,6.009282 7.857342,6.017280 9.655574,6.458252 
	C9.720067,9.249353 9.414592,11.607481 8.784573,14.136064 
	C7.988520,15.878912 7.517011,17.451305 7.045502,19.023699 
z"/>
<path fill="#F5F7FD" opacity="1.000000" stroke="none" 
	d="
M9.109117,13.965609 
	C9.414592,11.607481 9.720067,9.249353 10.083686,6.478391 
	C10.861143,6.048307 11.580456,6.031057 12.651806,6.088012 
	C12.491178,9.271872 11.978513,12.381525 10.897626,15.659449 
	C9.922641,15.207015 9.515879,14.586312 9.109117,13.965609 
z"/>
<path fill="#101621" opacity="1.000000" stroke="none" 
	d="
M6.606935,21.245560 
	C7.006641,22.207747 7.186003,23.398533 7.079277,24.783920 
	C6.657656,23.810402 6.522123,22.642279 6.606935,21.245560 
z"/>
<path fill="#767A82" opacity="1.000000" stroke="none" 
	d="
M68.172928,20.937195 
	C68.115143,19.874063 68.057350,18.810934 68.384171,17.372223 
	C69.185181,16.987221 69.601593,16.977798 70.009094,16.983578 
	C70.000175,16.998779 70.030815,16.981611 70.071381,17.296761 
	C70.732834,18.084187 71.353722,18.556461 71.988228,19.015961 
	C72.001854,19.003181 71.970078,19.019051 71.968124,19.396969 
	C72.399307,20.874212 72.832443,21.973541 73.265594,23.072868 
	C73.239433,26.869562 73.213272,30.666254 73.129745,34.970390 
	C72.733101,35.366501 72.393837,35.255161 71.234421,35.137859 
	C70.056839,35.221878 69.699387,35.311863 69.341942,35.401844 
	C69.209351,32.886501 69.076759,30.371161 69.273346,27.180872 
	C69.125999,24.649681 68.649467,22.793438 68.172928,20.937195 
z"/>
<path fill="#91929B" opacity="1.000000" stroke="none" 
	d="
M69.152023,53.045422 
	C69.288925,48.209728 69.425819,43.374035 69.905960,38.487114 
	C70.337181,42.855564 70.425171,47.275249 70.293869,52.264145 
	C70.074570,52.833355 69.789520,53.103363 69.629227,53.098999 
	C69.468933,53.094631 69.152023,53.045422 69.152023,53.045422 
z"/>
<path fill="#91929B" opacity="1.000000" stroke="none" 
	d="
M68.904198,55.995369 
	C68.902672,55.811604 68.901154,55.627842 69.174286,55.176426 
	C69.448921,54.908772 69.750298,54.915958 70.106842,54.947060 
	C70.700500,55.004829 70.937607,55.031494 71.174713,55.058163 
	C71.075119,56.648075 70.975517,58.237991 70.546982,60.218014 
	C69.667305,59.567120 69.116554,58.526115 68.901451,57.150551 
	C69.299919,56.707893 69.441162,56.539230 69.412338,56.501911 
	C69.267365,56.314217 69.077980,56.160812 68.904198,55.995369 
z"/>
<path fill="#9D9FA4" opacity="1.000000" stroke="none" 
	d="
M70.476929,67.886490 
	C69.939873,67.234711 69.764412,66.206375 69.835312,64.955956 
	C70.333961,65.659225 70.586235,66.584587 70.476929,67.886490 
z"/>
<path fill="#91929B" opacity="1.000000" stroke="none" 
	d="
M69.318466,35.697914 
	C69.699387,35.311863 70.056839,35.221878 70.967148,35.085331 
	C71.325386,35.607765 71.130760,36.176765 70.590698,37.049732 
	C69.928505,36.900459 69.611748,36.447220 69.318466,35.697914 
z"/>
<path fill="#9D9FA4" opacity="1.000000" stroke="none" 
	d="
M71.186050,54.708611 
	C70.937607,55.031494 70.700500,55.004829 70.158081,54.647255 
	C69.831688,53.912018 69.810600,53.507690 69.789520,53.103363 
	C69.789520,53.103363 70.074570,52.833355 70.194229,52.675137 
	C70.608383,53.130962 70.902885,53.745010 71.186050,54.708611 
z"/>
<path fill="#222831" opacity="1.000000" stroke="none" 
	d="
M74.924614,41.166210 
	C75.061859,41.098320 75.058189,41.500374 75.057938,41.700500 
	C75.057678,41.900631 74.713921,41.632160 74.713921,41.632160 
	C74.713921,41.632160 74.787369,41.234100 74.924614,41.166210 
z"/>
<path fill="#424854" opacity="1.000000" stroke="none" 
	d="
M68.094223,13.301929 
	C68.860748,12.982659 69.557808,12.996914 70.602264,13.015102 
	C71.940163,14.459745 72.930656,15.900455 73.972076,17.670029 
	C74.008369,18.446487 73.993752,18.894079 73.716705,19.559629 
	C72.959541,19.524740 72.464806,19.271894 71.970078,19.019051 
	C71.970078,19.019051 72.001854,19.003181 71.952232,18.697535 
	C71.278679,17.921795 70.654747,17.451702 70.030815,16.981609 
	C70.030815,16.981611 70.000175,16.998779 69.962502,16.684483 
	C69.336777,15.908270 68.748726,15.446354 68.160675,14.984438 
	C68.115372,14.534776 68.070068,14.085114 68.094223,13.301929 
z"/>
<path fill="#535764" opacity="1.000000" stroke="none" 
	d="
M71.968124,19.396967 
	C72.464806,19.271894 72.959541,19.524740 73.705612,19.895327 
	C73.920380,20.992365 73.883804,21.971663 73.556412,23.011913 
	C72.832443,21.973541 72.399307,20.874212 71.968124,19.396967 
z"/>
<path fill="#9D9FA4" opacity="1.000000" stroke="none" 
	d="
M68.008331,78.012283 
	C68.355812,77.359474 68.703293,76.706665 69.247131,75.862251 
	C69.815010,76.216980 70.186531,76.763321 70.834549,77.468277 
	C71.142593,78.478928 71.174141,79.330948 70.893929,80.580093 
	C70.386894,80.984200 70.191628,80.991188 69.675537,81.000671 
	C68.927002,81.008339 68.499275,81.013504 68.047661,80.643158 
	C68.018631,79.515854 68.013481,78.764069 68.008331,78.012283 
z"/>
<path fill="#94989D" opacity="1.000000" stroke="none" 
	d="
M68.071548,81.018669 
	C68.499275,81.013504 68.927002,81.008339 69.675484,81.327026 
	C70.279587,82.424667 70.562927,83.198448 70.846275,83.972237 
	C70.428490,84.613724 70.010712,85.255211 69.284103,85.937004 
	C68.975281,85.977310 68.991234,85.991669 68.996422,85.700844 
	C68.761902,84.709618 68.522194,84.009224 68.205406,82.931686 
	C68.109398,82.042587 68.090477,81.530632 68.071548,81.018669 
z"/>
<path fill="#767A82" opacity="1.000000" stroke="none" 
	d="
M71.121689,83.826675 
	C70.562927,83.198448 70.279587,82.424667 69.996292,81.324524 
	C70.191628,80.991188 70.386894,80.984200 70.875496,81.002243 
	C71.244919,81.911880 71.321007,82.796494 71.121689,83.826675 
z"/>
<path fill="#282D39" opacity="1.000000" stroke="none" 
	d="
M28.879740,12.217318 
	C29.968390,11.811748 31.186781,11.696538 32.742142,12.145130 
	C35.217640,15.798375 37.270626,18.952589 39.536648,21.945505 
	C40.447952,23.149137 41.826633,23.998905 42.992596,25.009727 
	C42.992596,25.009727 43.014469,25.499771 43.047340,26.073921 
	C44.040249,27.780863 45.000282,28.913656 45.975784,30.429937 
	C46.308041,32.568996 46.624828,34.324566 46.661026,35.917656 
	C44.970375,34.829380 43.560310,33.903587 42.150249,32.977795 
	C37.769997,26.154423 33.389740,19.331051 28.879740,12.217318 
z"/>
<path fill="#313842" opacity="1.000000" stroke="none" 
	d="
M53.063583,15.878695 
	C53.395676,18.186388 53.965107,20.489084 54.013783,22.802738 
	C54.141663,28.881998 54.042812,34.966026 53.769180,41.508602 
	C53.504070,41.969048 53.071102,42.029198 52.688324,42.016396 
	C50.877037,40.661007 49.448532,39.318420 48.427246,37.960960 
	C49.549049,37.041302 50.806049,36.183872 50.889839,35.224026 
	C51.418228,29.171133 51.686211,23.095510 52.259964,16.884979 
	C52.674339,16.454607 52.868961,16.166651 53.063583,15.878695 
z"/>
<path fill="#C0C2C6" opacity="1.000000" stroke="none" 
	d="
M68.047661,80.643158 
	C68.090477,81.530632 68.109398,82.042587 68.036667,83.138908 
	C67.665489,84.181595 67.385986,84.639915 67.106476,85.098244 
	C66.243874,85.418777 65.381279,85.739304 64.193504,86.189285 
	C62.523773,86.270737 61.179214,86.222733 59.227303,85.868515 
	C57.710812,85.380707 56.801682,85.199135 55.892551,85.017555 
	C55.731369,84.745422 55.520695,84.519440 55.071671,83.888985 
	C53.948509,82.279617 53.014198,81.120850 52.056160,79.648979 
	C52.002609,78.918617 51.972782,78.501366 51.942955,78.084114 
	C53.437618,78.235413 54.932278,78.386711 56.744541,79.166428 
	C59.222527,80.822311 61.317410,82.184532 63.591766,82.629562 
	C64.125443,82.733978 65.265869,79.737549 66.127151,78.167694 
	C66.544739,78.127571 66.962334,78.087448 67.694130,78.029800 
	C68.013481,78.764069 68.018631,79.515854 68.047661,80.643158 
z"/>
<path fill="#CACBCE" opacity="1.000000" stroke="none" 
	d="
M15.013841,81.272156 
	C14.831439,80.963692 14.907868,80.541290 14.891048,80.327316 
	C17.639826,79.425407 20.405422,78.737465 23.592491,78.428955 
	C24.027952,79.550415 24.041943,80.292442 24.007483,81.352844 
	C23.678473,82.478905 23.397913,83.286613 23.117355,84.094315 
	C19.410448,86.617279 17.342573,83.975342 15.013841,81.272156 
z"/>
<path fill="#40474E" opacity="1.000000" stroke="none" 
	d="
M48.020023,37.975838 
	C49.448532,39.318420 50.877037,40.661007 52.660618,42.409695 
	C52.332153,43.943134 51.648617,45.070469 50.965080,46.197803 
	C47.975945,42.031704 44.986813,37.865604 42.073967,33.338650 
	C43.560310,33.903587 44.970375,34.829380 46.789909,36.157795 
	C47.472931,37.032223 47.746479,37.504028 48.020023,37.975838 
z"/>
<path fill="#DDDEE2" opacity="1.000000" stroke="none" 
	d="
M65.713158,78.164032 
	C65.265869,79.737549 64.125443,82.733978 63.591766,82.629562 
	C61.317410,82.184532 59.222527,80.822311 57.000988,79.435699 
	C59.726276,78.771156 62.512722,78.465759 65.713158,78.164032 
z"/>
<path fill="#E2E5E9" opacity="1.000000" stroke="none" 
	d="
M51.027168,46.565041 
	C51.648617,45.070469 52.332153,43.943134 53.043396,42.422501 
	C53.071102,42.029198 53.504070,41.969048 53.722588,41.973873 
	C54.299995,45.199379 54.658894,48.420055 55.017792,51.640736 
	C54.321960,51.752056 53.626129,51.863377 52.930298,51.974693 
	C52.316616,50.293888 51.702934,48.613083 51.027168,46.565041 
z"/>
<path fill="#888C91" opacity="1.000000" stroke="none" 
	d="
M40.935417,61.016693 
	C42.168114,63.002846 43.400810,64.989006 44.448402,67.429840 
	C43.983261,68.045753 43.703224,68.206978 43.125488,68.283600 
	C41.335293,66.121429 39.842793,64.043884 38.594002,61.825264 
	C39.536945,61.461689 40.236179,61.239189 40.935417,61.016693 
z"/>
<path fill="#B3B3B5" opacity="1.000000" stroke="none" 
	d="
M32.810638,46.121098 
	C33.114407,46.890766 33.418175,47.660439 33.341156,48.728539 
	C30.792492,49.845623 28.624615,50.664284 26.456738,51.482941 
	C26.010654,50.272388 25.564571,49.061832 25.539944,47.451263 
	C26.956142,47.009102 27.950890,46.966961 29.243614,46.923515 
	C30.027744,46.626518 30.513893,46.330822 31.302757,46.040916 
	C32.007195,46.071499 32.408916,46.096298 32.810638,46.121098 
z"/>
<path fill="#9DA1A7" opacity="1.000000" stroke="none" 
	d="
M26.457428,51.583183 
	C28.624615,50.664284 30.792492,49.845623 33.379089,49.038490 
	C34.532776,50.134571 35.267738,51.219131 35.694328,52.643929 
	C34.927776,52.984497 34.469597,52.984825 33.739372,52.782295 
	C31.664190,52.417679 29.861052,52.255920 27.693470,52.037525 
	C27.089561,51.925117 26.850090,51.869347 26.610620,51.813580 
	C26.610620,51.813580 26.458118,51.683430 26.457428,51.583183 
z"/>
<path fill="#131C29" opacity="1.000000" stroke="none" 
	d="
M53.039669,15.508778 
	C52.868961,16.166651 52.674339,16.454607 51.880508,16.876234 
	C50.524708,17.010338 49.768116,17.010769 49.011520,17.011200 
	C48.454914,13.696131 50.605801,12.272500 53.478012,11.053354 
	C53.554005,12.376301 53.284878,13.757580 53.039669,15.508778 
z"/>
<path fill="#D2D2D4" opacity="1.000000" stroke="none" 
	d="
M28.945635,46.924820 
	C27.950890,46.966961 26.956142,47.009102 25.594629,47.092743 
	C26.152672,45.931286 26.966640,43.869137 28.028963,43.732090 
	C29.523392,43.539295 31.202076,44.774731 32.806305,45.760254 
	C32.408916,46.096298 32.007195,46.071499 31.131027,45.825058 
	C30.086266,46.043880 29.515949,46.484352 28.945635,46.924820 
z"/>
<path fill="#96979B" opacity="1.000000" stroke="none" 
	d="
M51.671295,77.900566 
	C51.972782,78.501366 52.002609,78.918617 51.711189,79.688362 
	C51.162151,80.079773 50.934361,80.118683 50.377327,80.086327 
	C48.919556,78.349358 47.791031,76.683655 46.977798,75.002106 
	C47.836609,74.690628 48.380123,74.394997 48.923637,74.099365 
	C49.748970,75.305252 50.574303,76.511131 51.671295,77.900566 
z"/>
<path fill="#212733" opacity="1.000000" stroke="none" 
	d="
M8.784573,14.136064 
	C9.515879,14.586312 9.922641,15.207015 10.614455,15.929892 
	C10.791038,16.785002 10.682567,17.537941 10.423846,18.644119 
	C9.411942,19.001741 8.550289,19.006124 7.367069,19.017103 
	C7.517011,17.451305 7.988520,15.878912 8.784573,14.136064 
z"/>
<path fill="#8B9094" opacity="1.000000" stroke="none" 
	d="
M34.011417,52.985153 
	C34.469597,52.984825 34.927776,52.984497 35.729652,52.976540 
	C36.972137,54.436100 37.870922,55.903286 38.518616,57.700714 
	C37.783714,58.066727 37.299908,58.102501 36.599937,58.113037 
	C36.383781,58.087803 35.951443,58.037510 35.924515,57.716637 
	C35.290440,56.864521 34.683292,56.333279 34.066017,55.450123 
	C34.041069,54.393856 34.026245,53.689507 34.011417,52.985153 
z"/>
<path fill="#7A7F86" opacity="1.000000" stroke="none" 
	d="
M36.816097,58.138275 
	C37.299908,58.102501 37.783714,58.066727 38.631184,58.016350 
	C39.617504,58.797005 40.240166,59.592262 40.899124,60.702103 
	C40.236179,61.239189 39.536945,61.461689 38.300873,61.797142 
	C37.571247,61.881943 37.378460,61.853790 37.138901,61.456154 
	C37.000118,60.103870 36.908108,59.121071 36.816097,58.138275 
z"/>
<path fill="#6A6E76" opacity="1.000000" stroke="none" 
	d="
M48.848328,73.791504 
	C48.380123,74.394997 47.836609,74.690628 46.667439,74.939262 
	C45.691849,74.147301 45.341915,73.402328 45.128815,72.422104 
	C45.860214,71.777771 46.454788,71.368706 47.049358,70.959633 
	C47.623909,71.800964 48.198460,72.642303 48.848328,73.791504 
z"/>
<path fill="#989BA1" opacity="1.000000" stroke="none" 
	d="
M47.052376,70.644264 
	C46.454788,71.368706 45.860214,71.777771 44.871216,72.224991 
	C44.125595,70.964828 43.774391,69.666519 43.423187,68.368210 
	C43.703224,68.206978 43.983261,68.045753 44.711990,67.679054 
	C45.792248,68.425354 46.423817,69.377129 47.052376,70.644264 
z"/>
<path fill="#9D9FA4" opacity="1.000000" stroke="none" 
	d="
M68.096390,21.323576 
	C68.649467,22.793438 69.125999,24.649681 69.328758,26.754696 
	C68.709938,25.238962 68.364899,23.474461 68.096390,21.323576 
z"/>
<path fill="#ABAEB2" opacity="1.000000" stroke="none" 
	d="
M24.055933,81.034477 
	C24.041943,80.292442 24.027952,79.550415 24.027336,78.438095 
	C24.212029,78.027214 24.383347,77.986626 24.817261,77.976166 
	C25.665501,78.747856 26.251143,79.489418 26.484787,80.592163 
	C25.440504,80.980385 24.748219,81.007431 24.055933,81.034477 
z"/>
<path fill="#989BA1" opacity="1.000000" stroke="none" 
	d="
M27.502678,55.066032 
	C27.135508,56.573719 26.768337,58.081406 26.046490,59.766830 
	C25.755171,58.048962 25.818531,56.153355 26.476538,54.298492 
	C27.215014,54.581501 27.358845,54.823765 27.502678,55.066032 
z"/>
<path fill="#535764" opacity="1.000000" stroke="none" 
	d="
M68.091507,15.310814 
	C68.748726,15.446354 69.336777,15.908270 69.971420,16.669281 
	C69.601593,16.977798 69.185181,16.987221 68.456894,16.978762 
	C68.104134,16.519650 68.063240,16.078419 68.091507,15.310814 
z"/>
<path fill="#676C74" opacity="1.000000" stroke="none" 
	d="
M27.645540,55.155991 
	C27.358845,54.823765 27.215014,54.581501 26.788651,54.021534 
	C26.506119,53.703831 26.501415,53.223827 26.904034,53.176003 
	C27.527433,53.192768 27.748213,53.257351 28.094322,53.531685 
	C28.468479,54.176895 28.717306,54.612354 28.966133,55.047813 
	C28.573557,55.113861 28.180979,55.179905 27.645540,55.155991 
z"/>
<path fill="#767A82" opacity="1.000000" stroke="none" 
	d="
M69.629227,53.098999 
	C69.810600,53.507690 69.831688,53.912018 69.801529,54.616150 
	C69.750298,54.915958 69.448921,54.908772 69.300438,54.931335 
	C69.097725,54.527466 69.043495,54.101028 69.070648,53.360008 
	C69.152023,53.045422 69.468933,53.094631 69.629227,53.098999 
z"/>
<path fill="#8B8F96" opacity="1.000000" stroke="none" 
	d="
M27.968994,53.321934 
	C27.748213,53.257351 27.527433,53.192768 27.003120,52.957397 
	C26.632048,52.629520 26.564505,52.472424 26.553791,52.064453 
	C26.850090,51.869347 27.089561,51.925117 27.670486,52.343880 
	C27.997625,52.911896 27.983309,53.116913 27.968994,53.321934 
z"/>
<path fill="#F5F7FD" opacity="1.000000" stroke="none" 
	d="
M12.479325,73.466766 
	C12.519348,73.445770 12.439302,73.487770 12.479325,73.466766 
z"/>
<path fill="#9D9FA4" opacity="1.000000" stroke="none" 
	d="
M68.848724,56.237995 
	C69.077980,56.160812 69.267365,56.314217 69.412338,56.501911 
	C69.441162,56.539230 69.299919,56.707893 69.063736,56.892406 
	C68.890373,56.968826 68.793251,56.480621 68.848724,56.237995 
z"/>
<path fill="#4D535C" opacity="1.000000" stroke="none" 
	d="
M36.599937,58.113037 
	C36.908108,59.121071 37.000118,60.103870 36.706547,61.512108 
	C30.485298,61.290234 30.811003,65.183945 31.067875,69.495087 
	C31.109440,73.327377 31.169218,76.704941 31.228998,80.082497 
	C31.174622,81.125626 31.120245,82.168747 31.078621,83.603546 
	C30.245287,85.203819 29.399199,86.412430 28.233528,87.694504 
	C27.927771,87.355583 27.941595,86.943192 27.930243,86.219208 
	C28.264015,79.849396 28.482124,73.778313 29.034004,67.737724 
	C29.372547,64.032219 30.222372,60.373417 31.216637,56.309883 
	C32.071529,55.938606 32.552387,55.951092 33.160522,56.258022 
	C34.175686,57.047485 35.063564,57.542496 35.951443,58.037510 
	C35.951443,58.037510 36.383781,58.087803 36.599937,58.113037 
z"/>
<path fill="#7D828A" opacity="1.000000" stroke="none" 
	d="
M33.033241,55.963573 
	C32.552387,55.951092 32.071529,55.938606 31.227524,55.917374 
	C30.398394,55.676456 29.932413,55.444290 29.216282,55.129971 
	C28.717306,54.612354 28.468479,54.176895 28.094322,53.531685 
	C27.983309,53.116913 27.997625,52.911896 28.034925,52.400520 
	C29.861052,52.255920 31.664190,52.417679 33.739372,52.782295 
	C34.026245,53.689507 34.041069,54.393856 33.806999,55.504887 
	C33.383156,55.928902 33.208199,55.946236 33.033241,55.963573 
z"/>
<path fill="#989BA1" opacity="1.000000" stroke="none" 
	d="
M24.007483,81.352844 
	C24.748219,81.007431 25.440504,80.980385 26.474934,80.928665 
	C25.809595,81.945724 24.802114,82.987457 23.455994,84.061752 
	C23.397913,83.286613 23.678473,82.478905 24.007483,81.352844 
z"/>
<path fill="#363D49" opacity="1.000000" stroke="none" 
	d="
M31.086088,69.040352 
	C30.811003,65.183945 30.485298,61.290234 36.753319,61.881592 
	C37.378460,61.853790 37.571247,61.881943 38.057163,61.938217 
	C39.842793,64.043884 41.335293,66.121429 43.125488,68.283600 
	C43.774391,69.666519 44.125595,70.964828 44.734390,72.460251 
	C45.341915,73.402328 45.691849,74.147301 46.352142,74.955109 
	C47.791031,76.683655 48.919556,78.349358 50.473633,80.309433 
	C51.087082,81.049500 51.274986,81.495201 51.462891,81.940903 
	C51.001091,82.749367 50.539295,83.557838 50.078011,84.654251 
	C48.521637,83.318840 46.893536,81.756737 45.428791,80.054100 
	C44.083813,78.490692 42.914875,76.775841 41.324795,75.075111 
	C40.981209,75.022514 40.500572,75.002235 40.215004,74.633911 
	C39.286579,72.509872 38.643723,70.754173 37.957336,68.655617 
	C36.974285,67.194672 36.034760,66.076576 35.044617,64.898247 
	C33.399628,66.619522 32.242859,67.829941 31.086088,69.040352 
z"/>
<path fill="#29313C" opacity="1.000000" stroke="none" 
	d="
M31.067875,69.495087 
	C32.242859,67.829941 33.399628,66.619522 35.044617,64.898247 
	C36.034760,66.076576 36.974285,67.194672 37.552017,68.660316 
	C32.370102,69.026215 34.498955,72.707138 34.023769,75.015564 
	C34.017704,76.400055 34.011639,77.784554 34.008461,79.584396 
	C33.312611,80.015388 32.613873,80.031036 31.572067,80.064590 
	C31.169218,76.704941 31.109440,73.327377 31.067875,69.495087 
z"/>
<path fill="#1A2330" opacity="1.000000" stroke="none" 
	d="
M34.450630,75.011490 
	C34.498955,72.707138 32.370102,69.026215 37.595551,69.003166 
	C38.643723,70.754173 39.286579,72.509872 39.974575,74.626701 
	C38.305641,74.994354 36.591568,75.000885 34.450630,75.011490 
z"/>
<path fill="#888E95" opacity="1.000000" stroke="none" 
	d="
M51.719582,82.177582 
	C51.274986,81.495201 51.087082,81.049500 50.802872,80.380692 
	C50.934361,80.118683 51.162151,80.079773 51.734917,80.001472 
	C53.014198,81.120850 53.948509,82.279617 54.869614,83.772530 
	C53.896366,83.542542 52.936321,82.978401 51.719582,82.177582 
z"/>
<path fill="#94989D" opacity="1.000000" stroke="none" 
	d="
M55.697857,85.240356 
	C56.801682,85.199135 57.710812,85.380707 58.822403,85.856033 
	C59.024731,86.352554 59.024601,86.555313 59.005424,87.065178 
	C57.825310,86.735901 56.664238,86.099525 55.697857,85.240356 
z"/>
<path fill="#767A82" opacity="1.000000" stroke="none" 
	d="
M67.281219,85.309921 
	C67.385986,84.639915 67.665489,84.181595 68.113739,83.516045 
	C68.522194,84.009224 68.761902,84.709618 69.001724,85.705948 
	C68.486549,85.841782 67.971252,85.681694 67.281219,85.309921 
z"/>
<path fill="#1B252F" opacity="1.000000" stroke="none" 
	d="
M49.019287,17.390926 
	C49.768116,17.010769 50.524708,17.010338 51.660759,17.018650 
	C51.686211,23.095510 51.418228,29.171133 50.889839,35.224026 
	C50.806049,36.183872 49.549049,37.041302 48.427246,37.960960 
	C47.746479,37.504028 47.472931,37.032223 47.070499,36.320274 
	C46.624828,34.324566 46.308041,32.568996 46.317459,30.445934 
	C51.678463,29.702320 47.818649,25.873020 49.002762,24.001936 
	C49.010860,21.924841 49.018955,19.847746 49.019287,17.390926 
z"/>
<path fill="#171E2C" opacity="1.000000" stroke="none" 
	d="
M42.993813,24.627794 
	C41.826633,23.998905 40.447952,23.149137 39.536648,21.945505 
	C37.270626,18.952589 35.217640,15.798375 33.025688,12.366508 
	C38.608864,14.215390 40.928120,19.127157 42.993813,24.627794 
z"/>
<path fill="#121B27" opacity="1.000000" stroke="none" 
	d="
M48.649185,24.048496 
	C47.818649,25.873020 51.678463,29.702320 46.301991,30.062447 
	C45.000282,28.913656 44.040249,27.780863 43.057114,26.318993 
	C44.787884,25.358294 46.541748,24.726675 48.649185,24.048496 
z"/>
<path fill="#535764" opacity="1.000000" stroke="none" 
	d="
M70.071381,17.296761 
	C70.654747,17.451702 71.278679,17.921795 71.938606,18.710312 
	C71.353722,18.556461 70.732834,18.084187 70.071381,17.296761 
z"/>
<path fill="#C0C2C6" opacity="1.000000" stroke="none" 
	d="
M29.243614,46.923515 
	C29.515949,46.484352 30.086266,46.043880 30.828310,45.819267 
	C30.513893,46.330822 30.027744,46.626518 29.243614,46.923515 
z"/>
<path fill="#676C74" opacity="1.000000" stroke="none" 
	d="
M33.160522,56.258022 
	C33.208199,55.946236 33.383156,55.928902 33.817127,55.856800 
	C34.683292,56.333279 35.290440,56.864521 35.924515,57.716637 
	C35.063564,57.542496 34.175686,57.047485 33.160522,56.258022 
z"/>
</svg>